<svg xmlns="http://www.w3.org/2000/svg" xmlns:xlink="http://www.w3.org/1999/xlink" width="80" zoomAndPan="magnify" viewBox="0 0 60 60" height="80" preserveAspectRatio="xMidYMid meet" version="1.0"><defs><clipPath id="31529e25b2"><path d="M 0 0 L 59.8125 0 L 59.8125 60 L 0 60 Z M 0 0 " clip-rule="nonzero"/></clipPath><clipPath id="aeae69dc0f"><path d="M 0 0 L 59.8125 0 L 59.8125 60 L 0 60 Z M 0 0 " clip-rule="nonzero"/></clipPath><clipPath id="0b12325481"><rect x="0" width="60" y="0" height="60"/></clipPath><clipPath id="7b44fc6531"><path d="M 40 30 L 57 30 L 57 54.4375 L 40 54.4375 Z M 40 30 " clip-rule="nonzero"/></clipPath><clipPath id="5b3fe96af1"><path d="M 35 22.554688 L 38 22.554688 L 38 26 L 35 26 Z M 35 22.554688 " clip-rule="nonzero"/></clipPath><clipPath id="83e9fac644"><path d="M 43.023438 30.605469 L 41.101562 32.066406 L 35.445312 24.675781 C 35.117188 24.25 35.167969 23.875 35.597656 23.546875 L 36.234375 23.0625 C 36.660156 22.738281 37.039062 22.789062 37.367188 23.214844 Z M 43.023438 30.605469 " clip-rule="nonzero"/></clipPath><clipPath id="d77b5d2e77"><path d="M 14 25.566406 L 22 25.566406 L 22 33 L 14 33 Z M 14 25.566406 " clip-rule="nonzero"/></clipPath><clipPath id="f6dd9e8959"><path d="M 16.257812 26.546875 L 12.792969 29.117188 C 12.792969 29.117188 16.78125 38.296875 18.847656 40.335938 L 29.613281 36.6875 C 29.613281 36.6875 26.085938 27.550781 24.195312 25.597656 Z M 16.257812 26.546875 " clip-rule="nonzero"/></clipPath><clipPath id="56b20606ff"><path d="M 5.402344 16 L 23 16 L 23 25 L 5.402344 25 Z M 5.402344 16 " clip-rule="nonzero"/></clipPath><clipPath id="164337b037"><path d="M 25.125 9.339844 C 23.257812 8.042969 18.878906 5.6875 13.070312 7.015625 C 12.652344 7.105469 12.242188 7.230469 11.84375 7.390625 C 7.507812 8.851562 4.804688 13.265625 5.574219 17.839844 L 5.558594 17.84375 C 5.578125 17.96875 5.601562 18.09375 5.625 18.21875 L 6.898438 24.28125 C 6.957031 24.578125 7.054688 24.863281 7.1875 25.136719 C 7.03125 25.597656 6.980469 26.070312 7.035156 26.554688 C 7.449219 29.960938 11.976562 28.847656 17.25 27.75 C 19.988281 27.179688 26.257812 24.71875 25.363281 20.433594 L 24.089844 14.371094 C 24.054688 14.191406 24.011719 14.015625 23.964844 13.84375 L 23.757812 12.84375 C 24.625 12.632812 25.652344 11.917969 25.828125 11.226562 C 26.027344 10.4375 25.792969 9.808594 25.125 9.339844 Z M 25.125 9.339844 " clip-rule="nonzero"/></clipPath><clipPath id="23dfb7c24b"><path d="M 5.402344 12 L 25.886719 12 L 25.886719 21 L 5.402344 21 Z M 5.402344 12 " clip-rule="nonzero"/></clipPath><clipPath id="66b52fd18d"><path d="M 25.125 9.339844 C 23.257812 8.042969 18.878906 5.6875 13.070312 7.015625 C 12.652344 7.105469 12.242188 7.230469 11.84375 7.390625 C 7.507812 8.851562 4.804688 13.265625 5.574219 17.839844 L 5.558594 17.84375 C 5.578125 17.96875 5.601562 18.09375 5.625 18.21875 L 6.898438 24.28125 C 6.957031 24.578125 7.054688 24.863281 7.1875 25.136719 C 7.03125 25.597656 6.980469 26.070312 7.035156 26.554688 C 7.449219 29.960938 11.976562 28.847656 17.25 27.75 C 19.988281 27.179688 26.257812 24.71875 25.363281 20.433594 L 24.089844 14.371094 C 24.054688 14.191406 24.011719 14.015625 23.964844 13.84375 L 23.757812 12.84375 C 24.625 12.632812 25.652344 11.917969 25.828125 11.226562 C 26.027344 10.4375 25.792969 9.808594 25.125 9.339844 Z M 25.125 9.339844 " clip-rule="nonzero"/></clipPath><clipPath id="9b92395f45"><path d="M 7 13 L 18 13 L 18 20 L 7 20 Z M 7 13 " clip-rule="nonzero"/></clipPath><clipPath id="978fa568cf"><path d="M 25.125 9.339844 C 23.257812 8.042969 18.878906 5.6875 13.070312 7.015625 C 12.652344 7.105469 12.242188 7.230469 11.84375 7.390625 C 7.507812 8.851562 4.804688 13.265625 5.574219 17.839844 L 5.558594 17.84375 C 5.578125 17.96875 5.601562 18.09375 5.625 18.21875 L 6.898438 24.28125 C 6.957031 24.578125 7.054688 24.863281 7.1875 25.136719 C 7.03125 25.597656 6.980469 26.070312 7.035156 26.554688 C 7.449219 29.960938 11.976562 28.847656 17.25 27.75 C 19.988281 27.179688 26.257812 24.71875 25.363281 20.433594 L 24.089844 14.371094 C 24.054688 14.191406 24.011719 14.015625 23.964844 13.84375 L 23.757812 12.84375 C 24.625 12.632812 25.652344 11.917969 25.828125 11.226562 C 26.027344 10.4375 25.792969 9.808594 25.125 9.339844 Z M 25.125 9.339844 " clip-rule="nonzero"/></clipPath><clipPath id="985f2922d8"><path d="M 8 15 L 9 15 L 9 16 L 8 16 Z M 8 15 " clip-rule="nonzero"/></clipPath><clipPath id="e16b6696ee"><path d="M 25.125 9.339844 C 23.257812 8.042969 18.878906 5.6875 13.070312 7.015625 C 12.652344 7.105469 12.242188 7.230469 11.84375 7.390625 C 7.507812 8.851562 4.804688 13.265625 5.574219 17.839844 L 5.558594 17.84375 C 5.578125 17.96875 5.601562 18.09375 5.625 18.21875 L 6.898438 24.28125 C 6.957031 24.578125 7.054688 24.863281 7.1875 25.136719 C 7.03125 25.597656 6.980469 26.070312 7.035156 26.554688 C 7.449219 29.960938 11.976562 28.847656 17.25 27.75 C 19.988281 27.179688 26.257812 24.71875 25.363281 20.433594 L 24.089844 14.371094 C 24.054688 14.191406 24.011719 14.015625 23.964844 13.84375 L 23.757812 12.84375 C 24.625 12.632812 25.652344 11.917969 25.828125 11.226562 C 26.027344 10.4375 25.792969 9.808594 25.125 9.339844 Z M 25.125 9.339844 " clip-rule="nonzero"/></clipPath><clipPath id="3495278901"><path d="M 8 18 L 10 18 L 10 20 L 8 20 Z M 8 18 " clip-rule="nonzero"/></clipPath><clipPath id="566f78b5b4"><path d="M 25.125 9.339844 C 23.257812 8.042969 18.878906 5.6875 13.070312 7.015625 C 12.652344 7.105469 12.242188 7.230469 11.84375 7.390625 C 7.507812 8.851562 4.804688 13.265625 5.574219 17.839844 L 5.558594 17.84375 C 5.578125 17.96875 5.601562 18.09375 5.625 18.21875 L 6.898438 24.28125 C 6.957031 24.578125 7.054688 24.863281 7.1875 25.136719 C 7.03125 25.597656 6.980469 26.070312 7.035156 26.554688 C 7.449219 29.960938 11.976562 28.847656 17.25 27.75 C 19.988281 27.179688 26.257812 24.71875 25.363281 20.433594 L 24.089844 14.371094 C 24.054688 14.191406 24.011719 14.015625 23.964844 13.84375 L 23.757812 12.84375 C 24.625 12.632812 25.652344 11.917969 25.828125 11.226562 C 26.027344 10.4375 25.792969 9.808594 25.125 9.339844 Z M 25.125 9.339844 " clip-rule="nonzero"/></clipPath><clipPath id="36357c4399"><path d="M 15 13 L 16 13 L 16 15 L 15 15 Z M 15 13 " clip-rule="nonzero"/></clipPath><clipPath id="1eed4b193a"><path d="M 25.125 9.339844 C 23.257812 8.042969 18.878906 5.6875 13.070312 7.015625 C 12.652344 7.105469 12.242188 7.230469 11.84375 7.390625 C 7.507812 8.851562 4.804688 13.265625 5.574219 17.839844 L 5.558594 17.84375 C 5.578125 17.96875 5.601562 18.09375 5.625 18.21875 L 6.898438 24.28125 C 6.957031 24.578125 7.054688 24.863281 7.1875 25.136719 C 7.03125 25.597656 6.980469 26.070312 7.035156 26.554688 C 7.449219 29.960938 11.976562 28.847656 17.25 27.75 C 19.988281 27.179688 26.257812 24.71875 25.363281 20.433594 L 24.089844 14.371094 C 24.054688 14.191406 24.011719 14.015625 23.964844 13.84375 L 23.757812 12.84375 C 24.625 12.632812 25.652344 11.917969 25.828125 11.226562 C 26.027344 10.4375 25.792969 9.808594 25.125 9.339844 Z M 25.125 9.339844 " clip-rule="nonzero"/></clipPath><clipPath id="3bf0430d0d"><path d="M 15 16 L 17 16 L 17 18 L 15 18 Z M 15 16 " clip-rule="nonzero"/></clipPath><clipPath id="151bf8be04"><path d="M 25.125 9.339844 C 23.257812 8.042969 18.878906 5.6875 13.070312 7.015625 C 12.652344 7.105469 12.242188 7.230469 11.84375 7.390625 C 7.507812 8.851562 4.804688 13.265625 5.574219 17.839844 L 5.558594 17.84375 C 5.578125 17.96875 5.601562 18.09375 5.625 18.21875 L 6.898438 24.28125 C 6.957031 24.578125 7.054688 24.863281 7.1875 25.136719 C 7.03125 25.597656 6.980469 26.070312 7.035156 26.554688 C 7.449219 29.960938 11.976562 28.847656 17.25 27.75 C 19.988281 27.179688 26.257812 24.71875 25.363281 20.433594 L 24.089844 14.371094 C 24.054688 14.191406 24.011719 14.015625 23.964844 13.84375 L 23.757812 12.84375 C 24.625 12.632812 25.652344 11.917969 25.828125 11.226562 C 26.027344 10.4375 25.792969 9.808594 25.125 9.339844 Z M 25.125 9.339844 " clip-rule="nonzero"/></clipPath></defs><g clip-path="url(#31529e25b2)"><g transform="matrix(1, 0, 0, 1, 0, -0.000000000000001479)"><g clip-path="url(#0b12325481)"><g clip-path="url(#aeae69dc0f)"><path fill="#00bf63" d="M 0 0 L 59.8125 0 L 59.8125 60.046875 L 0 60.046875 Z M 0 0 " fill-opacity="1" fill-rule="nonzero"/></g></g></g></g><path fill="#1a2233" d="M 37.839844 37.230469 C 37.269531 39.148438 35.214844 40.230469 33.25 39.597656 C 25.683594 37.152344 19.039062 34.558594 11.804688 31.074219 C 12.328125 29.984375 12.945312 28.867188 13.46875 27.777344 C 21.660156 31.722656 29.226562 34.644531 37.839844 37.230469 Z M 37.839844 37.230469 " fill-opacity="1" fill-rule="nonzero"/><path fill="#090d14" d="M 12.097656 29.945312 C 12.097656 29.945312 2.6875 36.054688 7.820312 40.066406 C 12.953125 44.078125 18.527344 32.136719 18.527344 32.136719 Z M 12.097656 29.945312 " fill-opacity="1" fill-rule="nonzero"/><path fill="#090d14" d="M 36.78125 48.363281 C 36.78125 48.363281 37.035156 50.109375 38.28125 50.214844 C 39.527344 50.320312 38.660156 47.246094 38.660156 47.246094 C 38.660156 47.246094 38.214844 46.550781 37.246094 46.890625 C 36.273438 47.226562 36.78125 48.363281 36.78125 48.363281 Z M 36.78125 48.363281 " fill-opacity="1" fill-rule="nonzero"/><path fill="#353f59" d="M 34.835938 48.574219 L 37.015625 48.574219 C 37.273438 48.574219 37.492188 48.484375 37.671875 48.304688 C 37.851562 48.125 37.941406 47.90625 37.941406 47.652344 C 37.941406 47.421875 37.867188 47.21875 37.714844 47.046875 C 37.5625 46.871094 37.371094 46.769531 37.140625 46.738281 L 35.300781 46.488281 Z M 34.835938 48.574219 " fill-opacity="1" fill-rule="nonzero"/><path fill="#ecac90" d="M 37.941406 30.035156 C 37.941406 30.035156 39.414062 31.964844 41.015625 31.207031 C 42.613281 30.449219 39.777344 28.757812 39.777344 28.757812 Z M 37.941406 30.035156 " fill-opacity="1" fill-rule="nonzero"/><g clip-path="url(#7b44fc6531)"><path fill="#c5cad8" d="M 55.792969 54.4375 C 55.792969 54.4375 57.414062 51.84375 56.378906 50.066406 C 52.363281 43.164062 47.890625 36.566406 42.96875 30.269531 C 42.007812 31.011719 41.816406 31.148438 40.859375 31.890625 C 46.433594 39.015625 51.410156 46.53125 55.792969 54.4375 Z M 55.792969 54.4375 " fill-opacity="1" fill-rule="nonzero"/></g><path fill="#1a2233" d="M 43.023438 30.605469 L 41.101562 32.066406 L 35.445312 24.675781 C 35.308594 24.5 35.257812 24.300781 35.285156 24.082031 C 35.316406 23.859375 35.417969 23.683594 35.597656 23.546875 L 36.234375 23.0625 C 36.410156 22.929688 36.609375 22.875 36.832031 22.90625 C 37.050781 22.933594 37.230469 23.039062 37.367188 23.214844 Z M 43.023438 30.605469 " fill-opacity="1" fill-rule="nonzero"/><g clip-path="url(#5b3fe96af1)"><g clip-path="url(#83e9fac644)"><path fill="#7982a1" d="M 37.933594 23.464844 L 35.539062 25.292969 L 34.609375 24.078125 L 37.007812 22.253906 Z M 37.933594 23.464844 " fill-opacity="1" fill-rule="nonzero"/></g></g><path fill="#7982a1" d="M 43.960938 30.667969 L 40.914062 32.984375 C 40.789062 33.082031 40.648438 33.117188 40.496094 33.097656 C 40.339844 33.074219 40.210938 33.003906 40.117188 32.878906 L 40.058594 32.804688 C 39.964844 32.679688 39.925781 32.539062 39.949219 32.382812 C 39.96875 32.226562 40.042969 32.101562 40.167969 32.007812 L 43.210938 29.6875 C 43.335938 29.59375 43.476562 29.554688 43.632812 29.574219 C 43.789062 29.597656 43.914062 29.667969 44.011719 29.792969 L 44.066406 29.871094 C 44.164062 29.992188 44.199219 30.132812 44.179688 30.289062 C 44.160156 30.445312 44.085938 30.570312 43.960938 30.667969 Z M 43.960938 30.667969 " fill-opacity="1" fill-rule="nonzero"/><path fill="#fcd2ba" d="M 37.863281 30.59375 C 37.863281 30.59375 40.175781 30.96875 41.347656 30.496094 C 41.832031 30.300781 41.851562 30.367188 42.21875 30.132812 C 42.601562 29.882812 42.777344 29.34375 42.667969 28.898438 C 42.621094 28.714844 42.527344 28.5625 42.382812 28.4375 C 42.238281 28.3125 42.074219 28.242188 41.886719 28.21875 C 41.886719 28.21875 42.960938 26.074219 39.953125 25.800781 C 38.21875 25.644531 37.75 27.808594 37.75 27.808594 C 37.65625 29.042969 37.863281 30.59375 37.863281 30.59375 Z M 37.863281 30.59375 " fill-opacity="1" fill-rule="nonzero"/><path fill="#090d14" d="M 23.550781 25.976562 C 23.550781 25.976562 27.996094 24.605469 38.070312 26.59375 L 37.640625 30.59375 C 37.640625 30.59375 32.273438 30.003906 23.957031 30.289062 C 15.644531 30.574219 23.550781 25.976562 23.550781 25.976562 Z M 23.550781 25.976562 " fill-opacity="1" fill-rule="nonzero"/><path fill="#090d14" d="M 25.175781 37.695312 L 29.769531 36.875 C 29.769531 36.875 31.085938 39.503906 30.101562 41.308594 C 29.121094 43.113281 25.175781 41.644531 25.175781 41.644531 Z M 25.175781 37.695312 " fill-opacity="1" fill-rule="nonzero"/><path fill="#090d14" d="M 25.453125 44.332031 C 25.453125 44.332031 29.578125 49.738281 34.015625 49.261719 C 38.449219 48.785156 36.898438 44.992188 35.40625 44.675781 C 34.492188 44.484375 31.820312 43.507812 29.941406 40.335938 C 28.058594 37.160156 22.105469 39.496094 22.105469 39.496094 Z M 25.453125 44.332031 " fill-opacity="1" fill-rule="nonzero"/><path fill="#090d14" d="M 23.675781 35.117188 L 24.046875 40.910156 L 27.660156 41.308594 L 29.914062 38.34375 C 29.914062 38.34375 29.734375 36.507812 28.363281 35.371094 C 26.992188 34.234375 23.675781 35.117188 23.675781 35.117188 Z M 23.675781 35.117188 " fill-opacity="1" fill-rule="nonzero"/><path fill="#090d14" d="M 24.574219 48.4375 C 24.574219 48.4375 24.605469 51.59375 26.285156 51.847656 C 27.964844 52.101562 28.914062 50.816406 28.757812 48.21875 C 28.757812 48.21875 28.820312 46.414062 27.171875 46.667969 C 25.527344 46.921875 24.574219 48.4375 24.574219 48.4375 Z M 24.574219 48.4375 " fill-opacity="1" fill-rule="nonzero"/><path fill="#353f59" d="M 22.898438 47.550781 L 24.855469 49.207031 C 25.164062 49.46875 25.519531 49.617188 25.921875 49.65625 C 26.324219 49.691406 26.699219 49.609375 27.050781 49.40625 C 27.257812 49.285156 27.433594 49.132812 27.585938 48.949219 C 27.734375 48.761719 27.84375 48.554688 27.917969 48.328125 C 27.988281 48.101562 28.015625 47.867188 28 47.628906 C 27.984375 47.390625 27.925781 47.164062 27.828125 46.949219 L 26.601562 44.332031 Z M 22.898438 47.550781 " fill-opacity="1" fill-rule="nonzero"/><path fill="#353f59" d="M 16.257812 26.546875 L 12.792969 29.117188 C 12.792969 29.117188 16.78125 38.296875 18.847656 40.335938 L 29.613281 36.6875 C 29.613281 36.6875 26.085938 27.550781 24.195312 25.597656 Z M 16.257812 26.546875 " fill-opacity="1" fill-rule="nonzero"/><g clip-path="url(#d77b5d2e77)"><g clip-path="url(#f6dd9e8959)"><path fill="#090d14" d="M 14.691406 25.234375 C 14.691406 25.234375 16.460938 30.621094 20.960938 32.484375 C 20.960938 32.484375 22.328125 28.15625 21.34375 24.808594 C 20.363281 21.460938 17.070312 24.019531 17.070312 24.019531 Z M 14.691406 25.234375 " fill-opacity="1" fill-rule="nonzero"/></g></g><path fill="#1a2233" d="M 16.738281 27.019531 L 17.171875 27.964844 C 17.277344 28.191406 17.417969 28.390625 17.597656 28.5625 C 17.777344 28.734375 17.984375 28.871094 18.214844 28.964844 C 18.445312 29.058594 18.683594 29.109375 18.933594 29.117188 C 19.183594 29.121094 19.425781 29.078125 19.660156 28.992188 C 19.90625 28.90625 20.121094 28.773438 20.316406 28.597656 C 20.507812 28.421875 20.65625 28.21875 20.769531 27.984375 C 20.878906 27.75 20.941406 27.503906 20.957031 27.246094 C 20.972656 26.984375 20.9375 26.734375 20.851562 26.488281 L 20.394531 25.171875 Z M 16.738281 27.019531 " fill-opacity="1" fill-rule="nonzero"/><path fill="#353f59" d="M 6.65625 23.132812 L 25.101562 19.289062 L 25.328125 20.371094 C 25.402344 20.707031 25.402344 21.046875 25.339844 21.382812 C 25.277344 21.71875 25.148438 22.03125 24.960938 22.320312 C 24.773438 22.609375 24.535156 22.847656 24.25 23.042969 C 23.964844 23.234375 23.65625 23.367188 23.320312 23.4375 L 7.414062 26.75 Z M 6.65625 23.132812 " fill-opacity="1" fill-rule="nonzero"/><path fill="#761715" d="M 29.941406 13.484375 L 22.304688 15.359375 L 21.738281 13.714844 L 28.964844 10.644531 Z M 29.941406 13.484375 " fill-opacity="1" fill-rule="nonzero"/><path fill="#761715" d="M 28.789062 17.515625 L 21.121094 15.773438 L 21.355469 14.054688 L 29.195312 14.542969 Z M 28.789062 17.515625 " fill-opacity="1" fill-rule="nonzero"/><path fill="#353f59" d="M 25.125 9.339844 C 23.257812 8.042969 18.878906 5.6875 13.070312 7.015625 C 12.652344 7.105469 12.242188 7.230469 11.84375 7.390625 C 7.507812 8.851562 4.804688 13.265625 5.574219 17.839844 L 5.558594 17.84375 C 5.578125 17.96875 5.601562 18.09375 5.625 18.21875 L 6.898438 24.28125 C 6.957031 24.578125 7.054688 24.863281 7.1875 25.136719 C 7.03125 25.597656 6.980469 26.070312 7.035156 26.554688 C 7.449219 29.960938 11.976562 28.847656 17.25 27.75 C 19.988281 27.179688 26.257812 24.71875 25.363281 20.433594 L 24.089844 14.371094 C 24.054688 14.191406 24.011719 14.015625 23.964844 13.84375 L 23.757812 12.84375 C 24.625 12.632812 25.652344 11.917969 25.828125 11.226562 C 25.917969 10.871094 25.898438 10.519531 25.769531 10.171875 C 25.640625 9.828125 25.425781 9.550781 25.125 9.339844 Z M 25.125 9.339844 " fill-opacity="1" fill-rule="nonzero"/><g clip-path="url(#56b20606ff)"><g clip-path="url(#164337b037)"><path fill="#fcd2ba" d="M 13.34375 17.65625 L 5.273438 19.828125 L 5.953125 23.070312 C 6.242188 24.445312 8.082031 25.226562 10.066406 24.8125 C 10.808594 24.65625 11.5 24.347656 12.042969 23.921875 L 12.429688 23.621094 C 13.542969 22.753906 15.207031 22.40625 16.578125 22.757812 L 17.050781 22.878906 C 17.722656 23.050781 18.480469 23.058594 19.222656 22.902344 C 21.207031 22.492188 22.578125 21.039062 22.292969 19.664062 L 21.613281 16.425781 Z M 13.34375 17.65625 " fill-opacity="1" fill-rule="nonzero"/></g></g><g clip-path="url(#23dfb7c24b)"><g clip-path="url(#66b52fd18d)"><path fill="#cb1313" d="M 25.878906 16.71875 C 18.585938 16.898438 11.445312 18.023438 4.453125 20.105469 C 4.011719 18.878906 3.574219 17.652344 3.136719 16.425781 C 10.59375 14.207031 18.210938 13.003906 25.992188 12.816406 C 25.953125 14.117188 25.917969 15.417969 25.878906 16.71875 Z M 25.878906 16.71875 " fill-opacity="1" fill-rule="nonzero"/></g></g><g clip-path="url(#9b92395f45)"><g clip-path="url(#978fa568cf)"><path fill="#7982a1" d="M 8.144531 14.824219 L 15.347656 13.21875 C 15.570312 13.171875 15.777344 13.207031 15.96875 13.328125 C 16.160156 13.449219 16.28125 13.621094 16.332031 13.839844 L 17.019531 16.914062 C 17.070312 17.136719 17.035156 17.34375 16.910156 17.535156 C 16.789062 17.722656 16.617188 17.84375 16.398438 17.894531 L 9.191406 19.5 C 8.972656 19.550781 8.765625 19.511719 8.574219 19.390625 C 8.382812 19.269531 8.261719 19.101562 8.210938 18.878906 L 7.523438 15.804688 C 7.472656 15.585938 7.507812 15.378906 7.628906 15.1875 C 7.753906 14.996094 7.921875 14.875 8.144531 14.824219 Z M 8.144531 14.824219 " fill-opacity="1" fill-rule="nonzero"/></g></g><g clip-path="url(#985f2922d8)"><g clip-path="url(#e16b6696ee)"><path fill="#45506d" d="M 8.695312 15.542969 C 8.695312 15.625 8.664062 15.699219 8.605469 15.757812 C 8.546875 15.816406 8.472656 15.847656 8.390625 15.847656 C 8.304688 15.847656 8.234375 15.816406 8.171875 15.757812 C 8.113281 15.699219 8.082031 15.625 8.082031 15.542969 C 8.082031 15.457031 8.113281 15.386719 8.171875 15.324219 C 8.234375 15.265625 8.304688 15.234375 8.390625 15.234375 C 8.472656 15.234375 8.546875 15.265625 8.605469 15.324219 C 8.664062 15.386719 8.695312 15.457031 8.695312 15.542969 Z M 8.695312 15.542969 " fill-opacity="1" fill-rule="nonzero"/></g></g><g clip-path="url(#3495278901)"><g clip-path="url(#566f78b5b4)"><path fill="#45506d" d="M 9.414062 18.75 C 9.414062 18.832031 9.386719 18.90625 9.324219 18.964844 C 9.265625 19.023438 9.191406 19.054688 9.109375 19.054688 C 9.023438 19.054688 8.953125 19.023438 8.890625 18.964844 C 8.832031 18.90625 8.804688 18.832031 8.804688 18.75 C 8.804688 18.664062 8.832031 18.59375 8.890625 18.535156 C 8.953125 18.472656 9.023438 18.445312 9.109375 18.445312 C 9.191406 18.445312 9.265625 18.472656 9.324219 18.535156 C 9.386719 18.59375 9.414062 18.664062 9.414062 18.75 Z M 9.414062 18.75 " fill-opacity="1" fill-rule="nonzero"/></g></g><g clip-path="url(#36357c4399)"><g clip-path="url(#1eed4b193a)"><path fill="#45506d" d="M 15.738281 13.972656 C 15.738281 14.054688 15.710938 14.128906 15.648438 14.1875 C 15.589844 14.246094 15.519531 14.277344 15.433594 14.277344 C 15.347656 14.277344 15.277344 14.246094 15.21875 14.1875 C 15.15625 14.128906 15.128906 14.054688 15.128906 13.972656 C 15.128906 13.886719 15.15625 13.816406 15.21875 13.753906 C 15.277344 13.695312 15.347656 13.664062 15.433594 13.664062 C 15.519531 13.664062 15.589844 13.695312 15.648438 13.753906 C 15.710938 13.816406 15.738281 13.886719 15.738281 13.972656 Z M 15.738281 13.972656 " fill-opacity="1" fill-rule="nonzero"/></g></g><g clip-path="url(#3bf0430d0d)"><g clip-path="url(#151bf8be04)"><path fill="#45506d" d="M 16.457031 17.179688 C 16.457031 17.261719 16.429688 17.335938 16.367188 17.394531 C 16.308594 17.453125 16.238281 17.484375 16.152344 17.484375 C 16.066406 17.484375 15.996094 17.453125 15.9375 17.394531 C 15.875 17.335938 15.847656 17.261719 15.847656 17.179688 C 15.847656 17.09375 15.875 17.023438 15.9375 16.964844 C 15.996094 16.902344 16.066406 16.875 16.152344 16.875 C 16.238281 16.875 16.308594 16.902344 16.367188 16.964844 C 16.429688 17.023438 16.457031 17.09375 16.457031 17.179688 Z M 16.457031 17.179688 " fill-opacity="1" fill-rule="nonzero"/></g></g><path fill="#000000" d="M 9.769531 20.113281 C 9.917969 20.082031 10.066406 20.082031 10.214844 20.109375 C 10.363281 20.136719 10.5 20.191406 10.625 20.273438 C 10.753906 20.355469 10.859375 20.460938 10.945312 20.585938 C 11.027344 20.710938 11.085938 20.84375 11.117188 20.992188 L 11.324219 21.980469 C 11.355469 22.128906 11.359375 22.277344 11.328125 22.425781 C 11.300781 22.574219 11.246094 22.710938 11.164062 22.835938 C 11.082031 22.964844 10.976562 23.070312 10.851562 23.15625 C 10.726562 23.238281 10.589844 23.296875 10.441406 23.328125 C 10.292969 23.359375 10.144531 23.359375 9.996094 23.332031 C 9.847656 23.304688 9.710938 23.25 9.585938 23.167969 C 9.457031 23.082031 9.351562 22.980469 9.265625 22.855469 C 9.183594 22.730469 9.125 22.59375 9.09375 22.449219 L 8.886719 21.457031 C 8.855469 21.308594 8.855469 21.164062 8.882812 21.015625 C 8.910156 20.867188 8.964844 20.730469 9.046875 20.601562 C 9.128906 20.476562 9.234375 20.371094 9.359375 20.285156 C 9.484375 20.199219 9.621094 20.144531 9.769531 20.113281 Z M 9.769531 20.113281 " fill-opacity="1" fill-rule="nonzero"/><path fill="#000000" d="M 17.601562 18.480469 C 17.75 18.449219 17.898438 18.449219 18.046875 18.476562 C 18.195312 18.503906 18.332031 18.558594 18.460938 18.640625 C 18.585938 18.722656 18.691406 18.828125 18.777344 18.953125 C 18.863281 19.078125 18.921875 19.214844 18.953125 19.359375 L 19.160156 20.351562 C 19.191406 20.496094 19.191406 20.644531 19.164062 20.792969 C 19.136719 20.941406 19.078125 21.078125 18.996094 21.207031 C 18.914062 21.332031 18.808594 21.4375 18.683594 21.523438 C 18.5625 21.605469 18.425781 21.664062 18.277344 21.695312 C 18.128906 21.726562 17.980469 21.726562 17.832031 21.699219 C 17.683594 21.671875 17.546875 21.617188 17.417969 21.535156 C 17.292969 21.453125 17.1875 21.347656 17.101562 21.222656 C 17.015625 21.097656 16.957031 20.964844 16.925781 20.816406 L 16.71875 19.824219 C 16.6875 19.679688 16.6875 19.53125 16.714844 19.382812 C 16.742188 19.234375 16.796875 19.097656 16.882812 18.96875 C 16.964844 18.84375 17.066406 18.738281 17.191406 18.652344 C 17.316406 18.570312 17.453125 18.511719 17.601562 18.480469 Z M 17.601562 18.480469 " fill-opacity="1" fill-rule="nonzero"/><path fill="#1a2233" d="M 24.195312 37.347656 L 29.183594 35.605469 L 29.769531 36.875 L 25.882812 38.328125 Z M 24.195312 37.347656 " fill-opacity="1" fill-rule="nonzero"/><path fill="#090d14" d="M 28.566406 39.195312 C 28.566406 39.195312 26.167969 35.292969 22.058594 36.117188 C 17.480469 37.035156 14.910156 40.996094 18.847656 46.210938 C 22.011719 50.394531 27.710938 47.171875 27.839844 44.425781 C 27.910156 42.898438 27.285156 42.796875 27.285156 42.796875 C 27.285156 42.796875 31.246094 43.554688 29.914062 38.34375 Z M 28.566406 39.195312 " fill-opacity="1" fill-rule="nonzero"/><path fill="#761715" d="M 23.550781 25.597656 C 23.550781 25.597656 26.136719 28.101562 27.035156 30.59375 C 27.035156 30.59375 28.089844 27.492188 26.984375 25.171875 C 26.984375 25.171875 25.183594 24.839844 23.550781 25.597656 Z M 23.550781 25.597656 " fill-opacity="1" fill-rule="nonzero"/><path fill="#761715" d="M 13.773438 28.453125 C 12.671875 28.21875 11.484375 30.105469 11.484375 30.105469 C 11.484375 30.105469 13.511719 30.859375 14.632812 33.113281 C 14.632812 33.113281 15.777344 28.882812 13.773438 28.453125 Z M 13.773438 28.453125 " fill-opacity="1" fill-rule="nonzero"/><path fill="#761715" d="M 34.421875 25.894531 C 34.421875 25.894531 35.175781 28.832031 34.246094 30.433594 L 37.71875 30.84375 C 37.71875 30.84375 39.769531 29.9375 38.351562 26.546875 Z M 34.421875 25.894531 " fill-opacity="1" fill-rule="nonzero"/><path fill="#1a2233" d="M 27.738281 44.980469 C 28.042969 43.910156 27.171875 41.613281 25.453125 40.699219 C 25.453125 40.699219 28.199219 45.183594 26.457031 46.796875 C 26.457031 46.796875 27.304688 46.511719 27.738281 44.980469 Z M 27.738281 44.980469 " fill-opacity="1" fill-rule="nonzero"/><path fill="#761715" d="M 11.605469 34.523438 L 10.640625 34.347656 C 10.640625 34.347656 7.410156 34.5625 7.582031 37.921875 C 7.757812 41.28125 11.308594 42.085938 13.414062 40.191406 C 15.515625 38.296875 11.605469 34.523438 11.605469 34.523438 Z M 11.605469 34.523438 " fill-opacity="1" fill-rule="nonzero"/><path fill="#fcd2ba" d="M 15.390625 34.585938 L 15.390625 29.933594 C 15.390625 29.671875 15.296875 29.453125 15.113281 29.269531 C 14.929688 29.085938 14.707031 28.996094 14.449219 28.996094 C 14.1875 28.996094 13.96875 29.085938 13.78125 29.269531 C 13.597656 29.453125 13.507812 29.671875 13.507812 29.933594 L 13.507812 30.242188 C 13.410156 30.046875 13.265625 29.902344 13.066406 29.808594 C 12.871094 29.714844 12.664062 29.691406 12.449219 29.742188 C 12.238281 29.792969 12.0625 29.902344 11.925781 30.074219 C 11.789062 30.242188 11.722656 30.4375 11.722656 30.65625 L 11.722656 34.773438 C 11.109375 35.085938 10.304688 35.851562 10.363281 37.734375 C 10.453125 40.742188 12.148438 41.867188 13.605469 41.730469 C 15.058594 41.589844 15.84375 41.039062 16.1875 39.640625 C 16.53125 38.25 18.527344 35.34375 15.390625 34.585938 Z M 15.390625 34.585938 " fill-opacity="1" fill-rule="nonzero"/><path fill="#ecac90" d="M 14.035156 36.507812 C 14.035156 36.507812 13.742188 37.582031 15.179688 37.496094 C 15.179688 37.496094 14.3125 38.929688 15.179688 39.898438 C 15.179688 39.898438 15.15625 37.519531 16.042969 37.097656 C 16.042969 37.097656 13.660156 37.433594 14.628906 35.875 C 14.628906 35.875 14.328125 35.855469 14.035156 36.507812 Z M 14.035156 36.507812 " fill-opacity="1" fill-rule="nonzero"/></svg>