<svg xmlns="http://www.w3.org/2000/svg" xmlns:xlink="http://www.w3.org/1999/xlink" width="80" zoomAndPan="magnify" viewBox="0 0 60 60" height="80" preserveAspectRatio="xMidYMid meet" version="1.0"><defs><clipPath id="6898e5db9a"><path d="M 0 0 L 59.8125 0 L 59.8125 60 L 0 60 Z M 0 0 " clip-rule="nonzero"/></clipPath><clipPath id="bed306ad5d"><path d="M 0 0 L 59.8125 0 L 59.8125 60 L 0 60 Z M 0 0 " clip-rule="nonzero"/></clipPath><clipPath id="c9c706f507"><rect x="0" width="60" y="0" height="60"/></clipPath><clipPath id="02286ca319"><path d="M 9.257812 19.398438 L 13 19.398438 L 13 23 L 9.257812 23 Z M 9.257812 19.398438 " clip-rule="nonzero"/></clipPath><clipPath id="218481e88e"><path d="M 9.71875 21.046875 L 10.160156 20.234375 C 10.457031 19.6875 10.878906 19.5625 11.433594 19.855469 L 21 24.917969 L 19.667969 27.367188 L 10.101562 22.304688 C 9.550781 22.011719 9.421875 21.589844 9.71875 21.046875 Z M 9.71875 21.046875 " clip-rule="nonzero"/></clipPath><clipPath id="e8b487ac90"><path d="M 44 14.1875 L 52.390625 14.1875 L 52.390625 24 L 44 24 Z M 44 14.1875 " clip-rule="nonzero"/></clipPath><clipPath id="8ae8af68eb"><path d="M 40.535156 18.601562 C 40.535156 18.601562 44.40625 15.488281 50.929688 14.230469 C 50.929688 14.230469 53.535156 16.554688 51.707031 19.007812 C 51.707031 19.007812 43.632812 21.441406 39.816406 26.085938 C 36 30.730469 40.535156 18.601562 40.535156 18.601562 Z M 40.535156 18.601562 " clip-rule="nonzero"/></clipPath><clipPath id="9cb007bb9c"><path d="M 22 39 L 31.03125 39 L 31.03125 48.46875 L 22 48.46875 Z M 22 39 " clip-rule="nonzero"/></clipPath><clipPath id="f1ff07c849"><path d="M 20.140625 33.992188 L 25.816406 48.277344 C 25.816406 48.277344 28.917969 49.367188 31.019531 46.308594 L 25.453125 31.957031 C 25.1875 31.273438 24.722656 30.769531 24.058594 30.445312 C 23.394531 30.117188 22.707031 30.058594 21.996094 30.261719 C 21.191406 30.492188 20.605469 30.980469 20.234375 31.722656 C 19.867188 32.464844 19.835938 33.222656 20.140625 33.992188 Z M 20.140625 33.992188 " clip-rule="nonzero"/></clipPath><clipPath id="72897f1095"><path d="M 17 4.320312 L 43 4.320312 L 43 29 L 17 29 Z M 17 4.320312 " clip-rule="nonzero"/></clipPath><clipPath id="421cf54cf9"><path d="M 23 16 L 42.40625 16 L 42.40625 24 L 23 24 Z M 23 16 " clip-rule="nonzero"/></clipPath><clipPath id="853321f24c"><path d="M 17.652344 9.925781 C 19.46875 8.023438 23.894531 4.335938 30.832031 4.472656 C 31.332031 4.472656 31.824219 4.519531 32.316406 4.605469 C 37.609375 5.230469 41.742188 9.578125 41.957031 14.921875 L 41.976562 14.921875 C 41.984375 15.070312 41.988281 15.214844 41.988281 15.359375 L 41.988281 22.503906 C 41.988281 22.851562 41.945312 23.195312 41.859375 23.535156 C 42.148438 24.019531 42.320312 24.542969 42.371094 25.101562 C 42.714844 29.042969 37.289062 28.851562 31.019531 28.851562 C 27.761719 28.851562 20.027344 27.550781 20.027344 22.503906 L 20.027344 15.359375 C 20.027344 15.152344 20.035156 14.945312 20.046875 14.738281 L 20.046875 13.5625 C 19.007812 13.527344 17.664062 12.960938 17.300781 12.222656 C 16.882812 11.375 17 10.613281 17.652344 9.925781 Z M 17.652344 9.925781 " clip-rule="nonzero"/></clipPath><clipPath id="74ffb2ac74"><path d="M 17.066406 12 L 42.40625 12 L 42.40625 19 L 17.066406 19 Z M 17.066406 12 " clip-rule="nonzero"/></clipPath><clipPath id="12485eb98c"><path d="M 17.652344 9.925781 C 19.46875 8.023438 23.894531 4.335938 30.832031 4.472656 C 31.332031 4.472656 31.824219 4.519531 32.316406 4.605469 C 37.609375 5.230469 41.742188 9.578125 41.957031 14.921875 L 41.976562 14.921875 C 41.984375 15.070312 41.988281 15.214844 41.988281 15.359375 L 41.988281 22.503906 C 41.988281 22.851562 41.945312 23.195312 41.859375 23.535156 C 42.148438 24.019531 42.320312 24.542969 42.371094 25.101562 C 42.714844 29.042969 37.289062 28.851562 31.019531 28.851562 C 27.761719 28.851562 20.027344 27.550781 20.027344 22.503906 L 20.027344 15.359375 C 20.027344 15.152344 20.035156 14.945312 20.046875 14.738281 L 20.046875 13.5625 C 19.007812 13.527344 17.664062 12.960938 17.300781 12.222656 C 16.882812 11.375 17 10.613281 17.652344 9.925781 Z M 17.652344 9.925781 " clip-rule="nonzero"/></clipPath><clipPath id="e0da563817"><path d="M 28 12 L 40 12 L 40 18 L 28 18 Z M 28 12 " clip-rule="nonzero"/></clipPath><clipPath id="ffe974e0b1"><path d="M 17.652344 9.925781 C 19.46875 8.023438 23.894531 4.335938 30.832031 4.472656 C 31.332031 4.472656 31.824219 4.519531 32.316406 4.605469 C 37.609375 5.230469 41.742188 9.578125 41.957031 14.921875 L 41.976562 14.921875 C 41.984375 15.070312 41.988281 15.214844 41.988281 15.359375 L 41.988281 22.503906 C 41.988281 22.851562 41.945312 23.195312 41.859375 23.535156 C 42.148438 24.019531 42.320312 24.542969 42.371094 25.101562 C 42.714844 29.042969 37.289062 28.851562 31.019531 28.851562 C 27.761719 28.851562 20.027344 27.550781 20.027344 22.503906 L 20.027344 15.359375 C 20.027344 15.152344 20.035156 14.945312 20.046875 14.738281 L 20.046875 13.5625 C 19.007812 13.527344 17.664062 12.960938 17.300781 12.222656 C 16.882812 11.375 17 10.613281 17.652344 9.925781 Z M 17.652344 9.925781 " clip-rule="nonzero"/></clipPath><clipPath id="d9836a41db"><path d="M 37 12 L 39 12 L 39 14 L 37 14 Z M 37 12 " clip-rule="nonzero"/></clipPath><clipPath id="5fb060b1f9"><path d="M 17.652344 9.925781 C 19.46875 8.023438 23.894531 4.335938 30.832031 4.472656 C 31.332031 4.472656 31.824219 4.519531 32.316406 4.605469 C 37.609375 5.230469 41.742188 9.578125 41.957031 14.921875 L 41.976562 14.921875 C 41.984375 15.070312 41.988281 15.214844 41.988281 15.359375 L 41.988281 22.503906 C 41.988281 22.851562 41.945312 23.195312 41.859375 23.535156 C 42.148438 24.019531 42.320312 24.542969 42.371094 25.101562 C 42.714844 29.042969 37.289062 28.851562 31.019531 28.851562 C 27.761719 28.851562 20.027344 27.550781 20.027344 22.503906 L 20.027344 15.359375 C 20.027344 15.152344 20.035156 14.945312 20.046875 14.738281 L 20.046875 13.5625 C 19.007812 13.527344 17.664062 12.960938 17.300781 12.222656 C 16.882812 11.375 17 10.613281 17.652344 9.925781 Z M 17.652344 9.925781 " clip-rule="nonzero"/></clipPath><clipPath id="f3fc51e9db"><path d="M 37 16 L 39 16 L 39 18 L 37 18 Z M 37 16 " clip-rule="nonzero"/></clipPath><clipPath id="0e58c99d74"><path d="M 17.652344 9.925781 C 19.46875 8.023438 23.894531 4.335938 30.832031 4.472656 C 31.332031 4.472656 31.824219 4.519531 32.316406 4.605469 C 37.609375 5.230469 41.742188 9.578125 41.957031 14.921875 L 41.976562 14.921875 C 41.984375 15.070312 41.988281 15.214844 41.988281 15.359375 L 41.988281 22.503906 C 41.988281 22.851562 41.945312 23.195312 41.859375 23.535156 C 42.148438 24.019531 42.320312 24.542969 42.371094 25.101562 C 42.714844 29.042969 37.289062 28.851562 31.019531 28.851562 C 27.761719 28.851562 20.027344 27.550781 20.027344 22.503906 L 20.027344 15.359375 C 20.027344 15.152344 20.035156 14.945312 20.046875 14.738281 L 20.046875 13.5625 C 19.007812 13.527344 17.664062 12.960938 17.300781 12.222656 C 16.882812 11.375 17 10.613281 17.652344 9.925781 Z M 17.652344 9.925781 " clip-rule="nonzero"/></clipPath><clipPath id="f32eb144a3"><path d="M 29 12 L 31 12 L 31 14 L 29 14 Z M 29 12 " clip-rule="nonzero"/></clipPath><clipPath id="ede7689f9a"><path d="M 17.652344 9.925781 C 19.46875 8.023438 23.894531 4.335938 30.832031 4.472656 C 31.332031 4.472656 31.824219 4.519531 32.316406 4.605469 C 37.609375 5.230469 41.742188 9.578125 41.957031 14.921875 L 41.976562 14.921875 C 41.984375 15.070312 41.988281 15.214844 41.988281 15.359375 L 41.988281 22.503906 C 41.988281 22.851562 41.945312 23.195312 41.859375 23.535156 C 42.148438 24.019531 42.320312 24.542969 42.371094 25.101562 C 42.714844 29.042969 37.289062 28.851562 31.019531 28.851562 C 27.761719 28.851562 20.027344 27.550781 20.027344 22.503906 L 20.027344 15.359375 C 20.027344 15.152344 20.035156 14.945312 20.046875 14.738281 L 20.046875 13.5625 C 19.007812 13.527344 17.664062 12.960938 17.300781 12.222656 C 16.882812 11.375 17 10.613281 17.652344 9.925781 Z M 17.652344 9.925781 " clip-rule="nonzero"/></clipPath><clipPath id="c9d6c5de0d"><path d="M 29 16 L 31 16 L 31 18 L 29 18 Z M 29 16 " clip-rule="nonzero"/></clipPath><clipPath id="0e6b7f8c99"><path d="M 17.652344 9.925781 C 19.46875 8.023438 23.894531 4.335938 30.832031 4.472656 C 31.332031 4.472656 31.824219 4.519531 32.316406 4.605469 C 37.609375 5.230469 41.742188 9.578125 41.957031 14.921875 L 41.976562 14.921875 C 41.984375 15.070312 41.988281 15.214844 41.988281 15.359375 L 41.988281 22.503906 C 41.988281 22.851562 41.945312 23.195312 41.859375 23.535156 C 42.148438 24.019531 42.320312 24.542969 42.371094 25.101562 C 42.714844 29.042969 37.289062 28.851562 31.019531 28.851562 C 27.761719 28.851562 20.027344 27.550781 20.027344 22.503906 L 20.027344 15.359375 C 20.027344 15.152344 20.035156 14.945312 20.046875 14.738281 L 20.046875 13.5625 C 19.007812 13.527344 17.664062 12.960938 17.300781 12.222656 C 16.882812 11.375 17 10.613281 17.652344 9.925781 Z M 17.652344 9.925781 " clip-rule="nonzero"/></clipPath><clipPath id="2e1ef20c4e"><path d="M 3.050781 42 L 13 42 L 13 51 L 3.050781 51 Z M 3.050781 42 " clip-rule="nonzero"/></clipPath><clipPath id="edf5535d21"><path d="M 3.050781 46 L 12 46 L 12 51 L 3.050781 51 Z M 3.050781 46 " clip-rule="nonzero"/></clipPath></defs><g clip-path="url(#6898e5db9a)"><g transform="matrix(1, 0, 0, 1, 0, -0.000000000000001479)"><g clip-path="url(#c9c706f507)"><g clip-path="url(#bed306ad5d)"><path fill="#ff751f" d="M 0 0 L 59.8125 0 L 59.8125 60.046875 L 0 60.046875 Z M 0 0 " fill-opacity="1" fill-rule="nonzero"/></g></g></g></g><path fill="#090d14" d="M 38.289062 42.632812 L 37.007812 44.269531 L 37.007812 47.191406 C 37.007812 47.5625 37.171875 47.832031 37.507812 48 C 38.609375 48.554688 41.367188 49.710938 44.058594 49.046875 C 44.269531 48.992188 44.441406 48.878906 44.574219 48.707031 C 44.703125 48.53125 44.761719 48.335938 44.75 48.117188 C 44.707031 47.457031 44.347656 46.507812 42.832031 45.9375 L 40.882812 43.128906 Z M 38.289062 42.632812 " fill-opacity="1" fill-rule="nonzero"/><path fill="#4f586e" d="M 36.75 40.445312 L 37.007812 44.269531 C 37.007812 44.269531 39.21875 45.328125 41.46875 44.269531 L 42.832031 40.046875 Z M 36.75 40.445312 " fill-opacity="1" fill-rule="nonzero"/><path fill="#1a2233" d="M 49.871094 36.957031 C 49.089844 39.132812 46.632812 40.253906 44.390625 39.40625 C 35.691406 36.113281 27.257812 32.25 19.09375 27.820312 C 19.765625 26.59375 20.441406 25.371094 21.117188 24.148438 C 30.359375 29.167969 39.945312 33.4375 49.871094 36.957031 Z M 49.871094 36.957031 " fill-opacity="1" fill-rule="nonzero"/><path fill="#1a2233" d="M 9.71875 21.046875 L 10.160156 20.234375 C 10.28125 20.007812 10.46875 19.855469 10.714844 19.78125 C 10.964844 19.707031 11.203125 19.734375 11.433594 19.855469 L 21 24.917969 L 19.667969 27.367188 L 10.101562 22.304688 C 9.875 22.183594 9.722656 22 9.648438 21.753906 C 9.570312 21.507812 9.59375 21.273438 9.71875 21.046875 Z M 9.71875 21.046875 " fill-opacity="1" fill-rule="nonzero"/><g clip-path="url(#02286ca319)"><g clip-path="url(#218481e88e)"><path fill="#7982a1" d="M 8.925781 22.070312 L 10.585938 19.015625 L 12.15625 19.847656 L 10.5 22.902344 Z M 8.925781 22.070312 " fill-opacity="1" fill-rule="nonzero"/></g></g><path fill="#7982a1" d="M 18.648438 27.75 L 20.753906 23.867188 C 20.839844 23.707031 20.972656 23.601562 21.148438 23.550781 C 21.324219 23.496094 21.492188 23.515625 21.652344 23.601562 L 21.75 23.652344 C 21.910156 23.738281 22.019531 23.867188 22.070312 24.039062 C 22.125 24.210938 22.105469 24.378906 22.019531 24.539062 L 19.914062 28.421875 C 19.828125 28.582031 19.695312 28.6875 19.519531 28.738281 C 19.34375 28.792969 19.175781 28.773438 19.015625 28.6875 L 18.917969 28.636719 C 18.757812 28.550781 18.648438 28.421875 18.597656 28.25 C 18.542969 28.078125 18.558594 27.910156 18.648438 27.75 Z M 18.648438 27.75 " fill-opacity="1" fill-rule="nonzero"/><path fill="#090d14" d="M 20.101562 32.039062 C 20.101562 32.039062 14.222656 35.425781 10.160156 39.238281 C 8.339844 40.945312 8.664062 43.894531 10.8125 45.179688 C 10.933594 45.25 11.054688 45.320312 11.179688 45.390625 C 12.09375 45.910156 13.078125 46.183594 14.132812 46.210938 C 15.1875 46.234375 16.183594 46.007812 17.121094 45.53125 L 28.214844 39.878906 L 35.53125 38.660156 L 35.515625 38.890625 C 35.5 39.148438 35.507812 39.410156 35.539062 39.667969 C 35.574219 39.925781 35.636719 40.179688 35.722656 40.425781 C 35.804688 40.671875 35.914062 40.90625 36.050781 41.132812 C 36.183594 41.355469 36.335938 41.566406 36.511719 41.761719 C 36.6875 41.957031 36.882812 42.128906 37.09375 42.285156 C 37.304688 42.441406 37.53125 42.578125 37.769531 42.6875 C 38.007812 42.800781 38.253906 42.886719 38.511719 42.949219 C 38.765625 43.011719 39.027344 43.050781 39.289062 43.0625 L 41.144531 43.140625 C 41.917969 43.175781 42.636719 43 43.308594 42.617188 C 43.976562 42.230469 44.484375 41.699219 44.839844 41.019531 L 46.257812 38.285156 C 48.714844 33.554688 44 28.285156 38.953125 30.140625 C 36.949219 30.875 34.957031 31.808594 33.183594 32.980469 C 25.761719 37.898438 27.453125 29.085938 27.453125 29.085938 Z M 20.101562 32.039062 " fill-opacity="1" fill-rule="nonzero"/><path fill="#fcd2ba" d="M 51.375 18.691406 C 51.375 18.691406 53.363281 20.804688 54.816406 19.6875 C 56.265625 18.570312 54.445312 17.203125 54.445312 17.203125 C 54.445312 17.203125 57.050781 15.632812 56.140625 13.179688 C 55.234375 10.730469 51.816406 11.773438 50.5625 14.953125 C 49.308594 18.132812 51.375 18.691406 51.375 18.691406 Z M 51.375 18.691406 " fill-opacity="1" fill-rule="nonzero"/><path fill="#1a2233" d="M 40.535156 18.601562 C 40.535156 18.601562 44.40625 15.488281 50.929688 14.230469 C 50.929688 14.230469 53.535156 16.554688 51.707031 19.007812 C 51.707031 19.007812 43.632812 21.441406 39.816406 26.085938 C 36 30.730469 40.535156 18.601562 40.535156 18.601562 Z M 40.535156 18.601562 " fill-opacity="1" fill-rule="nonzero"/><g clip-path="url(#e8b487ac90)"><g clip-path="url(#8ae8af68eb)"><path fill="#cb1313" d="M 49.359375 13.179688 L 44.8125 15.414062 C 44.8125 15.414062 48.425781 16.992188 48.082031 21.144531 C 47.734375 25.296875 54.300781 21.628906 54.617188 21.339844 C 54.9375 21.046875 55.183594 14.492188 55.183594 14.492188 Z M 49.359375 13.179688 " fill-opacity="1" fill-rule="nonzero"/></g></g><path fill="#1a2233" d="M 26.203125 36.671875 C 26.203125 36.671875 31.71875 37.089844 33.984375 34.277344 C 36.25 31.460938 24.839844 32.101562 24.839844 32.101562 L 23.972656 33.738281 Z M 26.203125 36.671875 " fill-opacity="1" fill-rule="nonzero"/><path fill="#353f59" d="M 19.511719 31.234375 C 19.511719 31.234375 19.507812 27.082031 22.550781 23.640625 C 25.597656 20.199219 38.757812 20.367188 38.757812 20.367188 L 41.136719 26.589844 L 39.046875 28.007812 C 39.046875 28.007812 35.992188 36.914062 25.871094 34.890625 C 15.753906 32.871094 22 32.269531 22 32.269531 Z M 19.511719 31.234375 " fill-opacity="1" fill-rule="nonzero"/><path fill="#fcd2ba" d="M 26.992188 47.257812 C 26.992188 47.257812 21.761719 50.78125 24.054688 52.40625 C 28.140625 55.304688 30.632812 51.15625 30.632812 51.15625 C 30.632812 51.15625 32.859375 52.554688 33.824219 50.757812 C 34.785156 48.957031 30.632812 46.15625 30.632812 46.15625 Z M 26.992188 47.257812 " fill-opacity="1" fill-rule="nonzero"/><path fill="#090d14" d="M 20.140625 33.992188 L 25.816406 48.277344 C 25.816406 48.277344 28.917969 49.367188 31.019531 46.308594 L 25.453125 31.957031 C 25.324219 31.628906 25.140625 31.332031 24.898438 31.070312 C 24.660156 30.808594 24.378906 30.601562 24.058594 30.445312 C 23.738281 30.285156 23.402344 30.191406 23.042969 30.160156 C 22.6875 30.128906 22.339844 30.164062 21.996094 30.261719 C 21.613281 30.371094 21.265625 30.554688 20.960938 30.808594 C 20.652344 31.0625 20.414062 31.367188 20.234375 31.722656 C 20.058594 32.078125 19.960938 32.453125 19.945312 32.847656 C 19.929688 33.242188 19.996094 33.625 20.140625 33.992188 Z M 20.140625 33.992188 " fill-opacity="1" fill-rule="nonzero"/><g clip-path="url(#9cb007bb9c)"><g clip-path="url(#f1ff07c849)"><path fill="#761715" d="M 22.886719 42.304688 C 22.886719 42.304688 25.984375 42.742188 29.042969 40.082031 C 32.105469 37.421875 34.648438 46.527344 34.648438 46.527344 L 30.480469 49.796875 L 25.761719 50.425781 L 22.039062 48.464844 Z M 22.886719 42.304688 " fill-opacity="1" fill-rule="nonzero"/></g></g><path fill="#761715" d="M 19.933594 34.824219 C 18.285156 33.136719 18.5625 30.359375 20.546875 29.074219 C 21.433594 28.5 22.636719 28.25 24.066406 29.277344 C 26.804688 31.25 26.054688 33.515625 26.054688 33.515625 C 26.054688 33.515625 23.796875 29.933594 21.632812 31.535156 C 19.46875 33.136719 20.742188 35.5 20.742188 35.5 C 20.449219 35.304688 20.179688 35.078125 19.933594 34.824219 Z M 19.933594 34.824219 " fill-opacity="1" fill-rule="nonzero"/><path fill="#090d14" d="M 25.589844 27.457031 L 31.367188 32.507812 L 33.183594 26.582031 Z M 25.589844 27.457031 " fill-opacity="1" fill-rule="nonzero"/><path fill="#353f59" d="M 41.988281 25.410156 L 23.074219 25.410156 C 22.671875 25.410156 22.285156 25.335938 21.917969 25.183594 C 21.546875 25.03125 21.21875 24.816406 20.933594 24.539062 C 20.652344 24.257812 20.433594 23.933594 20.28125 23.570312 C 20.125 23.203125 20.050781 22.820312 20.050781 22.425781 L 20.050781 21.152344 L 41.988281 21.152344 Z M 41.988281 25.410156 " fill-opacity="1" fill-rule="nonzero"/><path fill="#761715" d="M 13.152344 15.734375 L 22.300781 16.054688 L 22.550781 14.070312 L 13.585938 12.300781 Z M 13.152344 15.734375 " fill-opacity="1" fill-rule="nonzero"/><path fill="#761715" d="M 15.425781 20.015625 L 23.746094 16.25 L 23.070312 14.359375 L 14.253906 16.753906 Z M 15.425781 20.015625 " fill-opacity="1" fill-rule="nonzero"/><g clip-path="url(#72897f1095)"><path fill="#353f59" d="M 17.652344 9.925781 C 19.46875 8.023438 23.894531 4.335938 30.832031 4.472656 C 31.332031 4.472656 31.824219 4.519531 32.316406 4.605469 C 37.609375 5.230469 41.742188 9.578125 41.957031 14.921875 L 41.976562 14.921875 C 41.984375 15.070312 41.988281 15.214844 41.988281 15.359375 L 41.988281 22.503906 C 41.988281 22.851562 41.945312 23.195312 41.859375 23.535156 C 42.148438 24.019531 42.320312 24.542969 42.371094 25.101562 C 42.714844 29.042969 37.289062 28.851562 31.019531 28.851562 C 27.761719 28.851562 20.027344 27.550781 20.027344 22.503906 L 20.027344 15.359375 C 20.027344 15.152344 20.035156 14.945312 20.046875 14.738281 L 20.046875 13.5625 C 19.007812 13.527344 17.664062 12.960938 17.300781 12.222656 C 17.109375 11.839844 17.050781 11.4375 17.113281 11.019531 C 17.179688 10.601562 17.359375 10.234375 17.652344 9.925781 Z M 17.652344 9.925781 " fill-opacity="1" fill-rule="nonzero"/></g><g clip-path="url(#421cf54cf9)"><g clip-path="url(#853321f24c)"><path fill="#fcd2ba" d="M 33.058594 16.542969 L 42.773438 17.097656 L 42.773438 20.914062 C 42.773438 22.53125 40.863281 23.847656 38.503906 23.847656 C 37.621094 23.847656 36.757812 23.660156 36.035156 23.308594 L 35.523438 23.058594 C 34.046875 22.339844 32.070312 22.339844 30.59375 23.058594 L 30.082031 23.308594 C 29.359375 23.660156 28.496094 23.847656 27.613281 23.847656 C 25.253906 23.847656 23.34375 22.53125 23.34375 20.914062 L 23.34375 17.097656 Z M 33.058594 16.542969 " fill-opacity="1" fill-rule="nonzero"/></g></g><g clip-path="url(#74ffb2ac74)"><g clip-path="url(#12485eb98c)"><path fill="#cb1313" d="M 18.550781 18.433594 C 26.90625 16.917969 35.3125 16.511719 43.777344 17.214844 C 43.980469 15.726562 44.1875 14.238281 44.394531 12.753906 C 35.371094 12.003906 26.402344 12.4375 17.492188 14.054688 C 17.847656 15.511719 18.199219 16.972656 18.550781 18.433594 Z M 18.550781 18.433594 " fill-opacity="1" fill-rule="nonzero"/></g></g><g clip-path="url(#e0da563817)"><g clip-path="url(#ffe974e0b1)"><path fill="#7982a1" d="M 38.230469 17.648438 L 29.636719 17.527344 C 29.371094 17.523438 29.148438 17.429688 28.964844 17.242188 C 28.78125 17.054688 28.691406 16.832031 28.691406 16.570312 L 28.746094 12.941406 C 28.75 12.679688 28.84375 12.457031 29.035156 12.273438 C 29.222656 12.09375 29.449219 12.003906 29.714844 12.007812 L 38.308594 12.125 C 38.570312 12.128906 38.796875 12.226562 38.980469 12.414062 C 39.164062 12.597656 39.253906 12.824219 39.25 13.085938 L 39.199219 16.714844 C 39.195312 16.976562 39.097656 17.199219 38.910156 17.378906 C 38.71875 17.5625 38.492188 17.652344 38.230469 17.648438 Z M 38.230469 17.648438 " fill-opacity="1" fill-rule="nonzero"/></g></g><g clip-path="url(#d9836a41db)"><g clip-path="url(#5fb060b1f9)"><path fill="#45506d" d="M 38.554688 12.992188 C 38.554688 13.085938 38.519531 13.171875 38.453125 13.238281 C 38.382812 13.308594 38.296875 13.34375 38.199219 13.34375 C 38.101562 13.34375 38.015625 13.308594 37.949219 13.238281 C 37.878906 13.171875 37.84375 13.085938 37.84375 12.992188 C 37.84375 12.894531 37.878906 12.808594 37.949219 12.742188 C 38.015625 12.671875 38.101562 12.640625 38.199219 12.640625 C 38.296875 12.640625 38.382812 12.671875 38.453125 12.742188 C 38.519531 12.808594 38.554688 12.894531 38.554688 12.992188 Z M 38.554688 12.992188 " fill-opacity="1" fill-rule="nonzero"/></g></g><g clip-path="url(#f3fc51e9db)"><g clip-path="url(#0e58c99d74)"><path fill="#45506d" d="M 38.503906 16.78125 C 38.503906 16.878906 38.46875 16.960938 38.398438 17.027344 C 38.328125 17.097656 38.246094 17.132812 38.144531 17.132812 C 38.046875 17.132812 37.964844 17.097656 37.894531 17.027344 C 37.824219 16.960938 37.789062 16.878906 37.789062 16.78125 C 37.789062 16.683594 37.824219 16.601562 37.894531 16.53125 C 37.964844 16.460938 38.046875 16.429688 38.144531 16.429688 C 38.246094 16.429688 38.328125 16.460938 38.398438 16.53125 C 38.46875 16.601562 38.503906 16.683594 38.503906 16.78125 Z M 38.503906 16.78125 " fill-opacity="1" fill-rule="nonzero"/></g></g><g clip-path="url(#f32eb144a3)"><g clip-path="url(#ede7689f9a)"><path fill="#45506d" d="M 30.15625 12.875 C 30.15625 12.972656 30.121094 13.054688 30.050781 13.125 C 29.980469 13.191406 29.898438 13.226562 29.796875 13.226562 C 29.699219 13.226562 29.617188 13.191406 29.546875 13.125 C 29.476562 13.054688 29.441406 12.972656 29.441406 12.875 C 29.441406 12.777344 29.476562 12.695312 29.546875 12.625 C 29.617188 12.558594 29.699219 12.523438 29.796875 12.523438 C 29.898438 12.523438 29.980469 12.558594 30.050781 12.625 C 30.121094 12.695312 30.15625 12.777344 30.15625 12.875 Z M 30.15625 12.875 " fill-opacity="1" fill-rule="nonzero"/></g></g><g clip-path="url(#c9d6c5de0d)"><g clip-path="url(#0e6b7f8c99)"><path fill="#45506d" d="M 30.101562 16.664062 C 30.101562 16.761719 30.066406 16.84375 29.996094 16.914062 C 29.925781 16.980469 29.84375 17.015625 29.746094 17.015625 C 29.648438 17.015625 29.5625 16.980469 29.492188 16.914062 C 29.421875 16.84375 29.390625 16.761719 29.390625 16.664062 C 29.390625 16.566406 29.421875 16.484375 29.492188 16.414062 C 29.5625 16.347656 29.648438 16.3125 29.746094 16.3125 C 29.84375 16.3125 29.925781 16.347656 29.996094 16.414062 C 30.066406 16.484375 30.101562 16.566406 30.101562 16.664062 Z M 30.101562 16.664062 " fill-opacity="1" fill-rule="nonzero"/></g></g><path fill="#000000" d="M 37.71875 22.261719 C 37.542969 22.261719 37.375 22.226562 37.210938 22.160156 C 37.046875 22.09375 36.90625 22 36.78125 21.878906 C 36.65625 21.753906 36.558594 21.613281 36.492188 21.453125 C 36.425781 21.292969 36.390625 21.125 36.390625 20.949219 L 36.390625 19.785156 C 36.390625 19.609375 36.425781 19.445312 36.492188 19.28125 C 36.558594 19.121094 36.65625 18.980469 36.78125 18.859375 C 36.90625 18.734375 37.046875 18.640625 37.210938 18.574219 C 37.375 18.507812 37.542969 18.472656 37.71875 18.472656 C 37.894531 18.472656 38.0625 18.507812 38.226562 18.574219 C 38.390625 18.640625 38.53125 18.734375 38.65625 18.859375 C 38.78125 18.980469 38.878906 19.121094 38.945312 19.28125 C 39.011719 19.445312 39.046875 19.609375 39.046875 19.785156 L 39.046875 20.949219 C 39.046875 21.125 39.011719 21.292969 38.945312 21.453125 C 38.878906 21.613281 38.78125 21.753906 38.65625 21.878906 C 38.53125 22 38.390625 22.09375 38.226562 22.160156 C 38.0625 22.226562 37.894531 22.261719 37.71875 22.261719 Z M 37.71875 22.261719 " fill-opacity="1" fill-rule="nonzero"/><path fill="#000000" d="M 28.402344 22.261719 C 28.226562 22.261719 28.058594 22.226562 27.894531 22.160156 C 27.734375 22.09375 27.589844 22 27.464844 21.878906 C 27.339844 21.753906 27.246094 21.613281 27.175781 21.453125 C 27.109375 21.292969 27.078125 21.125 27.078125 20.949219 L 27.078125 19.785156 C 27.078125 19.609375 27.109375 19.445312 27.175781 19.28125 C 27.246094 19.121094 27.339844 18.980469 27.464844 18.859375 C 27.589844 18.734375 27.734375 18.640625 27.894531 18.574219 C 28.058594 18.507812 28.226562 18.472656 28.402344 18.472656 C 28.578125 18.472656 28.75 18.507812 28.910156 18.574219 C 29.074219 18.640625 29.21875 18.734375 29.34375 18.859375 C 29.464844 18.980469 29.5625 19.121094 29.628906 19.28125 C 29.695312 19.445312 29.730469 19.609375 29.730469 19.785156 L 29.730469 20.949219 C 29.730469 21.125 29.695312 21.292969 29.628906 21.453125 C 29.5625 21.613281 29.464844 21.753906 29.34375 21.878906 C 29.21875 22 29.074219 22.09375 28.910156 22.160156 C 28.75 22.226562 28.578125 22.261719 28.402344 22.261719 Z M 28.402344 22.261719 " fill-opacity="1" fill-rule="nonzero"/><g clip-path="url(#2e1ef20c4e)"><path fill="#090d14" d="M 11.605469 46.53125 L 12.789062 42.671875 L 9.347656 42.671875 C 6.296875 44.496094 4.304688 46.121094 3.347656 47.566406 C 3.226562 47.742188 3.15625 47.9375 3.125 48.144531 C 3.097656 48.355469 3.117188 48.558594 3.183594 48.761719 C 3.25 48.960938 3.355469 49.140625 3.503906 49.292969 C 3.652344 49.445312 3.828125 49.558594 4.027344 49.632812 C 5.4375 50.152344 7.339844 50.855469 11.109375 49.539062 C 11.4375 49.425781 11.691406 49.222656 11.867188 48.929688 C 12.042969 48.632812 12.105469 48.316406 12.046875 47.976562 C 11.929688 47.328125 11.605469 46.53125 11.605469 46.53125 Z M 11.605469 46.53125 " fill-opacity="1" fill-rule="nonzero"/></g><path fill="#7982a1" d="M 4.367188 46.203125 L 9.660156 41.601562 C 9.679688 41.582031 9.699219 41.578125 9.726562 41.582031 C 10.078125 41.65625 12.796875 42.304688 13.4375 44.988281 C 13.445312 45.019531 13.433594 45.046875 13.410156 45.066406 L 11.652344 46.472656 C 11.636719 46.484375 11.621094 46.488281 11.601562 46.488281 L 4.414062 46.335938 C 4.378906 46.335938 4.355469 46.320312 4.34375 46.285156 C 4.332031 46.253906 4.339844 46.226562 4.367188 46.203125 Z M 4.367188 46.203125 " fill-opacity="1" fill-rule="nonzero"/><path fill="#090d14" d="M 4.339844 46.363281 C 4.339844 46.363281 8.554688 44.191406 11.601562 46.488281 L 9.6875 48.332031 L 6.148438 48.332031 Z M 4.339844 46.363281 " fill-opacity="1" fill-rule="nonzero"/><g clip-path="url(#edf5535d21)"><path fill="#090d14" d="M 5.335938 46.882812 L 3.574219 49.359375 C 3.574219 49.359375 6.226562 51.917969 11.484375 49.34375 Z M 5.335938 46.882812 " fill-opacity="1" fill-rule="nonzero"/></g></svg>