<svg xmlns="http://www.w3.org/2000/svg" xmlns:xlink="http://www.w3.org/1999/xlink" width="80" zoomAndPan="magnify" viewBox="0 0 60 60" height="80" preserveAspectRatio="xMidYMid meet" version="1.0"><defs><clipPath id="40e2712531"><path d="M 0 0 L 59.8125 0 L 59.8125 60 L 0 60 Z M 0 0 " clip-rule="nonzero"/></clipPath><clipPath id="b8811a8292"><path d="M 0 0 L 59.8125 0 L 59.8125 60 L 0 60 Z M 0 0 " clip-rule="nonzero"/></clipPath><clipPath id="0fe69387a0"><rect x="0" width="60" y="0" height="60"/></clipPath><clipPath id="1cd0575226"><path d="M 23 23 L 46.183594 23 L 46.183594 41 L 23 41 Z M 23 23 " clip-rule="nonzero"/></clipPath><clipPath id="b2286bd27e"><path d="M 16.5625 17.136719 L 20 17.136719 L 20 20 L 16.5625 20 Z M 16.5625 17.136719 " clip-rule="nonzero"/></clipPath><clipPath id="ceb622ee8e"><path d="M 17.113281 18.28125 L 17.632812 17.714844 C 17.980469 17.335938 18.347656 17.320312 18.730469 17.664062 L 25.371094 23.636719 L 23.808594 25.339844 L 17.167969 19.367188 C 16.785156 19.023438 16.765625 18.660156 17.113281 18.28125 Z M 17.113281 18.28125 " clip-rule="nonzero"/></clipPath><clipPath id="198063a99f"><path d="M 18 51 L 24 51 L 24 55.320312 L 18 55.320312 Z M 18 51 " clip-rule="nonzero"/></clipPath><clipPath id="9a5691ede6"><path d="M 38 51 L 45 51 L 45 55.320312 L 38 55.320312 Z M 38 51 " clip-rule="nonzero"/></clipPath><clipPath id="46b9c04af9"><path d="M 27 23.144531 L 36 23.144531 L 36 30 L 27 30 Z M 27 23.144531 " clip-rule="nonzero"/></clipPath><clipPath id="c422490159"><path d="M 37.402344 36.757812 L 25.394531 36.757812 C 25.097656 36.757812 24.847656 36.65625 24.640625 36.449219 C 24.429688 36.242188 24.328125 35.992188 24.328125 35.699219 L 24.328125 29.667969 C 24.328125 26.820312 26.503906 23.671875 29.363281 23.382812 L 31.398438 23.175781 L 33.433594 23.382812 C 36.296875 23.671875 38.472656 26.820312 38.472656 29.667969 L 38.472656 35.699219 C 38.472656 35.992188 38.367188 36.242188 38.160156 36.449219 C 37.949219 36.65625 37.699219 36.757812 37.402344 36.757812 Z M 37.402344 36.757812 " clip-rule="nonzero"/></clipPath><clipPath id="786b67ab59"><path d="M 24.300781 23.144531 L 38.496094 23.144531 L 38.496094 32 L 24.300781 32 Z M 24.300781 23.144531 " clip-rule="nonzero"/></clipPath><clipPath id="79e69a988b"><path d="M 37.402344 36.757812 L 25.394531 36.757812 C 25.097656 36.757812 24.847656 36.65625 24.640625 36.449219 C 24.429688 36.242188 24.328125 35.992188 24.328125 35.699219 L 24.328125 29.667969 C 24.328125 26.820312 26.503906 23.671875 29.363281 23.382812 L 31.398438 23.175781 L 33.433594 23.382812 C 36.296875 23.671875 38.472656 26.820312 38.472656 29.667969 L 38.472656 35.699219 C 38.472656 35.992188 38.367188 36.242188 38.160156 36.449219 C 37.949219 36.65625 37.699219 36.757812 37.402344 36.757812 Z M 37.402344 36.757812 " clip-rule="nonzero"/></clipPath><clipPath id="99563712eb"><path d="M 38 10 L 46.183594 10 L 46.183594 15 L 38 15 Z M 38 10 " clip-rule="nonzero"/></clipPath><clipPath id="7bb03632f0"><path d="M 22 4.320312 L 43 4.320312 L 43 25 L 22 25 Z M 22 4.320312 " clip-rule="nonzero"/></clipPath><clipPath id="88deb7aff4"><path d="M 23 14 L 40 14 L 40 21 L 23 21 Z M 23 14 " clip-rule="nonzero"/></clipPath><clipPath id="7511dc41b7"><path d="M 42.449219 8.949219 C 40.949219 7.375 37.289062 4.320312 31.554688 4.433594 C 31.140625 4.433594 30.730469 4.472656 30.324219 4.542969 C 25.949219 5.0625 22.535156 8.664062 22.355469 13.089844 L 22.339844 13.089844 C 22.335938 13.210938 22.332031 13.332031 22.332031 13.453125 L 22.332031 19.367188 C 22.332031 19.65625 22.367188 19.941406 22.433594 20.222656 C 22.160156 20.691406 22.011719 21.136719 22.011719 21.523438 C 22.011719 23.570312 26.214844 24.625 31.398438 24.625 C 36.582031 24.625 40.785156 23.570312 40.785156 21.523438 C 40.785156 21.144531 40.640625 20.707031 40.375 20.246094 C 40.449219 19.957031 40.484375 19.664062 40.484375 19.367188 L 40.484375 13.453125 C 40.484375 13.277344 40.480469 13.105469 40.46875 12.9375 L 40.46875 11.960938 C 41.328125 11.933594 42.441406 11.460938 42.742188 10.851562 C 43.085938 10.152344 42.988281 9.519531 42.449219 8.949219 Z M 42.449219 8.949219 " clip-rule="nonzero"/></clipPath><clipPath id="7de8e92813"><path d="M 22 11 L 42.945312 11 L 42.945312 16 L 22 16 Z M 22 11 " clip-rule="nonzero"/></clipPath><clipPath id="b5e7883a17"><path d="M 42.449219 8.949219 C 40.949219 7.375 37.289062 4.320312 31.554688 4.433594 C 31.140625 4.433594 30.730469 4.472656 30.324219 4.542969 C 25.949219 5.0625 22.535156 8.664062 22.355469 13.089844 L 22.339844 13.089844 C 22.335938 13.210938 22.332031 13.332031 22.332031 13.453125 L 22.332031 19.367188 C 22.332031 19.65625 22.367188 19.941406 22.433594 20.222656 C 22.160156 20.691406 22.011719 21.136719 22.011719 21.523438 C 22.011719 23.570312 26.214844 24.625 31.398438 24.625 C 36.582031 24.625 40.785156 23.570312 40.785156 21.523438 C 40.785156 21.144531 40.640625 20.707031 40.375 20.246094 C 40.449219 19.957031 40.484375 19.664062 40.484375 19.367188 L 40.484375 13.453125 C 40.484375 13.277344 40.480469 13.105469 40.46875 12.9375 L 40.46875 11.960938 C 41.328125 11.933594 42.441406 11.460938 42.742188 10.851562 C 43.085938 10.152344 42.988281 9.519531 42.449219 8.949219 Z M 42.449219 8.949219 " clip-rule="nonzero"/></clipPath><clipPath id="29c61c9a64"><path d="M 27 11 L 36 11 L 36 16 L 27 16 Z M 27 11 " clip-rule="nonzero"/></clipPath><clipPath id="9076d43461"><path d="M 42.449219 8.949219 C 40.949219 7.375 37.289062 4.320312 31.554688 4.433594 C 31.140625 4.433594 30.730469 4.472656 30.324219 4.542969 C 25.949219 5.0625 22.535156 8.664062 22.355469 13.089844 L 22.339844 13.089844 C 22.335938 13.210938 22.332031 13.332031 22.332031 13.453125 L 22.332031 19.367188 C 22.332031 19.65625 22.367188 19.941406 22.433594 20.222656 C 22.160156 20.691406 22.011719 21.136719 22.011719 21.523438 C 22.011719 23.570312 26.214844 24.625 31.398438 24.625 C 36.582031 24.625 40.785156 23.570312 40.785156 21.523438 C 40.785156 21.144531 40.640625 20.707031 40.375 20.246094 C 40.449219 19.957031 40.484375 19.664062 40.484375 19.367188 L 40.484375 13.453125 C 40.484375 13.277344 40.480469 13.105469 40.46875 12.9375 L 40.46875 11.960938 C 41.328125 11.933594 42.441406 11.460938 42.742188 10.851562 C 43.085938 10.152344 42.988281 9.519531 42.449219 8.949219 Z M 42.449219 8.949219 " clip-rule="nonzero"/></clipPath><clipPath id="99ae0c6efa"><path d="M 27 11 L 29 11 L 29 13 L 27 13 Z M 27 11 " clip-rule="nonzero"/></clipPath><clipPath id="bbc29930e4"><path d="M 42.449219 8.949219 C 40.949219 7.375 37.289062 4.320312 31.554688 4.433594 C 31.140625 4.433594 30.730469 4.472656 30.324219 4.542969 C 25.949219 5.0625 22.535156 8.664062 22.355469 13.089844 L 22.339844 13.089844 C 22.335938 13.210938 22.332031 13.332031 22.332031 13.453125 L 22.332031 19.367188 C 22.332031 19.65625 22.367188 19.941406 22.433594 20.222656 C 22.160156 20.691406 22.011719 21.136719 22.011719 21.523438 C 22.011719 23.570312 26.214844 24.625 31.398438 24.625 C 36.582031 24.625 40.785156 23.570312 40.785156 21.523438 C 40.785156 21.144531 40.640625 20.707031 40.375 20.246094 C 40.449219 19.957031 40.484375 19.664062 40.484375 19.367188 L 40.484375 13.453125 C 40.484375 13.277344 40.480469 13.105469 40.46875 12.9375 L 40.46875 11.960938 C 41.328125 11.933594 42.441406 11.460938 42.742188 10.851562 C 43.085938 10.152344 42.988281 9.519531 42.449219 8.949219 Z M 42.449219 8.949219 " clip-rule="nonzero"/></clipPath><clipPath id="36e20ed7b7"><path d="M 27 14 L 29 14 L 29 16 L 27 16 Z M 27 14 " clip-rule="nonzero"/></clipPath><clipPath id="66667c7a0b"><path d="M 42.449219 8.949219 C 40.949219 7.375 37.289062 4.320312 31.554688 4.433594 C 31.140625 4.433594 30.730469 4.472656 30.324219 4.542969 C 25.949219 5.0625 22.535156 8.664062 22.355469 13.089844 L 22.339844 13.089844 C 22.335938 13.210938 22.332031 13.332031 22.332031 13.453125 L 22.332031 19.367188 C 22.332031 19.65625 22.367188 19.941406 22.433594 20.222656 C 22.160156 20.691406 22.011719 21.136719 22.011719 21.523438 C 22.011719 23.570312 26.214844 24.625 31.398438 24.625 C 36.582031 24.625 40.785156 23.570312 40.785156 21.523438 C 40.785156 21.144531 40.640625 20.707031 40.375 20.246094 C 40.449219 19.957031 40.484375 19.664062 40.484375 19.367188 L 40.484375 13.453125 C 40.484375 13.277344 40.480469 13.105469 40.46875 12.9375 L 40.46875 11.960938 C 41.328125 11.933594 42.441406 11.460938 42.742188 10.851562 C 43.085938 10.152344 42.988281 9.519531 42.449219 8.949219 Z M 42.449219 8.949219 " clip-rule="nonzero"/></clipPath><clipPath id="79d9588396"><path d="M 34 11 L 36 11 L 36 13 L 34 13 Z M 34 11 " clip-rule="nonzero"/></clipPath><clipPath id="abea7efe6e"><path d="M 42.449219 8.949219 C 40.949219 7.375 37.289062 4.320312 31.554688 4.433594 C 31.140625 4.433594 30.730469 4.472656 30.324219 4.542969 C 25.949219 5.0625 22.535156 8.664062 22.355469 13.089844 L 22.339844 13.089844 C 22.335938 13.210938 22.332031 13.332031 22.332031 13.453125 L 22.332031 19.367188 C 22.332031 19.65625 22.367188 19.941406 22.433594 20.222656 C 22.160156 20.691406 22.011719 21.136719 22.011719 21.523438 C 22.011719 23.570312 26.214844 24.625 31.398438 24.625 C 36.582031 24.625 40.785156 23.570312 40.785156 21.523438 C 40.785156 21.144531 40.640625 20.707031 40.375 20.246094 C 40.449219 19.957031 40.484375 19.664062 40.484375 19.367188 L 40.484375 13.453125 C 40.484375 13.277344 40.480469 13.105469 40.46875 12.9375 L 40.46875 11.960938 C 41.328125 11.933594 42.441406 11.460938 42.742188 10.851562 C 43.085938 10.152344 42.988281 9.519531 42.449219 8.949219 Z M 42.449219 8.949219 " clip-rule="nonzero"/></clipPath><clipPath id="424288eaf7"><path d="M 34 14 L 36 14 L 36 16 L 34 16 Z M 34 14 " clip-rule="nonzero"/></clipPath><clipPath id="9024bba515"><path d="M 42.449219 8.949219 C 40.949219 7.375 37.289062 4.320312 31.554688 4.433594 C 31.140625 4.433594 30.730469 4.472656 30.324219 4.542969 C 25.949219 5.0625 22.535156 8.664062 22.355469 13.089844 L 22.339844 13.089844 C 22.335938 13.210938 22.332031 13.332031 22.332031 13.453125 L 22.332031 19.367188 C 22.332031 19.65625 22.367188 19.941406 22.433594 20.222656 C 22.160156 20.691406 22.011719 21.136719 22.011719 21.523438 C 22.011719 23.570312 26.214844 24.625 31.398438 24.625 C 36.582031 24.625 40.785156 23.570312 40.785156 21.523438 C 40.785156 21.144531 40.640625 20.707031 40.375 20.246094 C 40.449219 19.957031 40.484375 19.664062 40.484375 19.367188 L 40.484375 13.453125 C 40.484375 13.277344 40.480469 13.105469 40.46875 12.9375 L 40.46875 11.960938 C 41.328125 11.933594 42.441406 11.460938 42.742188 10.851562 C 43.085938 10.152344 42.988281 9.519531 42.449219 8.949219 Z M 42.449219 8.949219 " clip-rule="nonzero"/></clipPath><clipPath id="973f3fb246"><path d="M 13.933594 23 L 20 23 L 20 31 L 13.933594 31 Z M 13.933594 23 " clip-rule="nonzero"/></clipPath></defs><g clip-path="url(#40e2712531)"><g transform="matrix(1, 0, 0, 1, 0, -0.000000000000001479)"><g clip-path="url(#0fe69387a0)"><g clip-path="url(#b8811a8292)"><path fill="#5170ff" d="M 0 0 L 59.8125 0 L 59.8125 60.046875 L 0 60.046875 Z M 0 0 " fill-opacity="1" fill-rule="nonzero"/></g></g></g></g><g clip-path="url(#1cd0575226)"><path fill="#1a2233" d="M 46.078125 39.046875 C 45.011719 40.640625 42.8125 41.054688 41.183594 39.925781 C 34.878906 35.550781 28.902344 30.769531 23.253906 25.585938 C 24.042969 24.738281 24.832031 23.886719 25.625 23.039062 C 32.015625 28.910156 38.835938 34.246094 46.078125 39.046875 Z M 46.078125 39.046875 " fill-opacity="1" fill-rule="nonzero"/></g><path fill="#1a2233" d="M 17.113281 18.28125 L 17.632812 17.714844 C 17.777344 17.558594 17.957031 17.472656 18.171875 17.464844 C 18.386719 17.453125 18.574219 17.519531 18.730469 17.664062 L 25.371094 23.636719 L 23.808594 25.339844 L 17.167969 19.367188 C 17.007812 19.222656 16.921875 19.046875 16.914062 18.835938 C 16.902344 18.621094 16.96875 18.4375 17.113281 18.28125 Z M 17.113281 18.28125 " fill-opacity="1" fill-rule="nonzero"/><g clip-path="url(#b2286bd27e)"><g clip-path="url(#ceb622ee8e)"><path fill="#7982a1" d="M 16.269531 18.949219 L 18.222656 16.820312 L 19.316406 17.800781 L 17.363281 19.929688 Z M 16.269531 18.949219 " fill-opacity="1" fill-rule="nonzero"/></g></g><path fill="#7982a1" d="M 22.910156 25.441406 L 25.390625 22.742188 C 25.492188 22.632812 25.621094 22.570312 25.769531 22.566406 C 25.921875 22.558594 26.054688 22.605469 26.164062 22.707031 L 26.234375 22.765625 C 26.34375 22.867188 26.40625 22.992188 26.410156 23.140625 C 26.417969 23.292969 26.371094 23.421875 26.269531 23.53125 L 23.789062 26.234375 C 23.6875 26.34375 23.5625 26.402344 23.410156 26.410156 C 23.257812 26.417969 23.128906 26.371094 23.015625 26.269531 L 22.949219 26.210938 C 22.835938 26.109375 22.777344 25.984375 22.769531 25.832031 C 22.761719 25.683594 22.808594 25.554688 22.910156 25.441406 Z M 22.910156 25.441406 " fill-opacity="1" fill-rule="nonzero"/><g clip-path="url(#198063a99f)"><path fill="#090d14" d="M 23.960938 51.917969 L 23.960938 55.320312 L 18.433594 55.320312 C 18.433594 55.320312 18.144531 53.980469 19.191406 53.050781 L 19.871094 51.742188 Z M 23.960938 51.917969 " fill-opacity="1" fill-rule="nonzero"/></g><g clip-path="url(#9a5691ede6)"><path fill="#090d14" d="M 38.835938 51.917969 L 38.835938 55.320312 L 44.367188 55.320312 C 44.367188 55.320312 44.652344 53.980469 43.605469 53.050781 L 42.925781 51.742188 Z M 38.835938 51.917969 " fill-opacity="1" fill-rule="nonzero"/></g><path fill="#353f59" d="M 23.953125 52.34375 L 19.609375 52.34375 L 21.792969 47.335938 L 26.132812 47.335938 Z M 23.953125 52.34375 " fill-opacity="1" fill-rule="nonzero"/><path fill="#353f59" d="M 38.84375 52.34375 L 43.1875 52.34375 L 41.007812 47.335938 L 36.664062 47.335938 Z M 38.84375 52.34375 " fill-opacity="1" fill-rule="nonzero"/><path fill="#090d14" d="M 43.8125 30.128906 C 42.789062 28.886719 41.234375 27.25 39.230469 25.917969 L 37.3125 28.863281 L 40.46875 32.0625 L 39.171875 35 L 42.402344 36.867188 L 44.148438 33.921875 C 44.3125 33.625 44.433594 33.308594 44.503906 32.976562 C 44.574219 32.648438 44.597656 32.3125 44.566406 31.972656 C 44.535156 31.636719 44.457031 31.308594 44.328125 30.996094 C 44.199219 30.679688 44.027344 30.394531 43.8125 30.128906 Z M 43.8125 30.128906 " fill-opacity="1" fill-rule="nonzero"/><path fill="#090d14" d="M 23.714844 48.832031 C 21.789062 48.300781 20.390625 46.84375 21.234375 45.101562 L 24.480469 38.386719 C 24.601562 38.148438 24.773438 37.960938 25.003906 37.820312 C 25.230469 37.679688 25.480469 37.609375 25.75 37.609375 L 33.347656 37.609375 L 28.652344 47.3125 C 28.203125 48.242188 26.359375 49.566406 23.714844 48.832031 Z M 23.714844 48.832031 " fill-opacity="1" fill-rule="nonzero"/><path fill="#090d14" d="M 39.085938 48.832031 C 41.007812 48.300781 42.40625 46.84375 41.566406 45.101562 L 38.316406 38.386719 C 38.199219 38.148438 38.023438 37.960938 37.796875 37.820312 C 37.566406 37.679688 37.316406 37.609375 37.046875 37.609375 L 29.449219 37.609375 L 34.144531 47.3125 C 34.59375 48.242188 36.441406 49.566406 39.085938 48.832031 Z M 39.085938 48.832031 " fill-opacity="1" fill-rule="nonzero"/><path fill="#761715" d="M 38.472656 29.054688 L 33.203125 29.054688 C 33.203125 29.054688 31.410156 24.964844 32.6875 24.644531 C 37.414062 23.464844 39.839844 25.960938 39.839844 25.960938 Z M 38.472656 29.054688 " fill-opacity="1" fill-rule="nonzero"/><path fill="#761715" d="M 24.328125 29.054688 L 29.59375 29.054688 C 29.59375 29.054688 31.386719 24.964844 30.109375 24.644531 C 25.386719 23.464844 22.957031 25.960938 22.957031 25.960938 Z M 24.328125 29.054688 " fill-opacity="1" fill-rule="nonzero"/><path fill="#353f59" d="M 37.402344 36.757812 L 25.394531 36.757812 C 25.253906 36.757812 25.117188 36.730469 24.984375 36.675781 C 24.855469 36.625 24.738281 36.546875 24.640625 36.449219 C 24.539062 36.347656 24.460938 36.234375 24.40625 36.105469 C 24.351562 35.976562 24.328125 35.839844 24.328125 35.699219 L 24.328125 29.667969 C 24.328125 26.820312 26.503906 23.671875 29.363281 23.382812 L 31.398438 23.175781 L 33.433594 23.382812 C 36.296875 23.671875 38.472656 26.820312 38.472656 29.667969 L 38.472656 35.699219 C 38.472656 35.839844 38.445312 35.976562 38.390625 36.105469 C 38.335938 36.234375 38.257812 36.347656 38.160156 36.449219 C 38.058594 36.546875 37.945312 36.625 37.8125 36.675781 C 37.683594 36.730469 37.546875 36.757812 37.402344 36.757812 Z M 37.402344 36.757812 " fill-opacity="1" fill-rule="nonzero"/><g clip-path="url(#46b9c04af9)"><g clip-path="url(#c422490159)"><path fill="#090d14" d="M 31.398438 23.523438 L 27.714844 23.523438 L 31.398438 29.28125 L 35.085938 23.523438 Z M 31.398438 23.523438 " fill-opacity="1" fill-rule="nonzero"/></g></g><g clip-path="url(#786b67ab59)"><g clip-path="url(#79e69a988b)"><path fill="#353f59" d="M 38.550781 20.558594 L 37.390625 19.835938 L 31.398438 29.265625 L 25.410156 19.835938 L 24.246094 20.558594 L 30.582031 30.546875 L 31.386719 31.816406 Z M 38.550781 20.558594 " fill-opacity="1" fill-rule="nonzero"/></g></g><path fill="#1a2233" d="M 33.175781 24.46875 C 33.175781 24.664062 33.132812 24.847656 33.042969 25.023438 C 32.953125 25.203125 32.824219 25.359375 32.65625 25.492188 C 32.488281 25.628906 32.296875 25.734375 32.078125 25.808594 C 31.863281 25.882812 31.636719 25.917969 31.398438 25.917969 C 31.164062 25.917969 30.9375 25.882812 30.71875 25.808594 C 30.5 25.734375 30.308594 25.628906 30.140625 25.492188 C 29.976562 25.359375 29.847656 25.203125 29.757812 25.023438 C 29.667969 24.847656 29.621094 24.664062 29.621094 24.46875 C 29.621094 24.277344 29.667969 24.09375 29.757812 23.917969 C 29.847656 23.738281 29.976562 23.582031 30.140625 23.445312 C 30.308594 23.3125 30.5 23.207031 30.71875 23.132812 C 30.9375 23.058594 31.164062 23.023438 31.398438 23.023438 C 31.636719 23.023438 31.863281 23.058594 32.078125 23.132812 C 32.296875 23.207031 32.488281 23.3125 32.65625 23.445312 C 32.824219 23.582031 32.953125 23.738281 33.042969 23.917969 C 33.132812 24.09375 33.175781 24.277344 33.175781 24.46875 Z M 33.175781 24.46875 " fill-opacity="1" fill-rule="nonzero"/><path fill="#353f59" d="M 22.332031 18.246094 L 40.46875 18.246094 L 40.46875 21.777344 L 22.332031 21.777344 Z M 22.332031 18.246094 " fill-opacity="1" fill-rule="nonzero"/><g clip-path="url(#99563712eb)"><path fill="#761715" d="M 46.171875 13.761719 L 38.605469 14.027344 L 38.398438 12.382812 L 45.8125 10.917969 Z M 46.171875 13.761719 " fill-opacity="1" fill-rule="nonzero"/></g><path fill="#761715" d="M 44.292969 17.308594 L 37.410156 14.1875 L 37.972656 12.625 L 45.257812 14.605469 Z M 44.292969 17.308594 " fill-opacity="1" fill-rule="nonzero"/><g clip-path="url(#7bb03632f0)"><path fill="#353f59" d="M 42.449219 8.949219 C 40.949219 7.375 37.289062 4.320312 31.554688 4.433594 C 31.140625 4.433594 30.730469 4.472656 30.324219 4.542969 C 25.949219 5.0625 22.535156 8.664062 22.355469 13.089844 L 22.339844 13.089844 C 22.335938 13.210938 22.332031 13.332031 22.332031 13.453125 L 22.332031 19.367188 C 22.332031 19.65625 22.367188 19.941406 22.433594 20.222656 C 22.160156 20.691406 22.011719 21.136719 22.011719 21.523438 C 22.011719 23.570312 26.214844 24.625 31.398438 24.625 C 36.582031 24.625 40.785156 23.570312 40.785156 21.523438 C 40.785156 21.144531 40.640625 20.707031 40.375 20.246094 C 40.449219 19.957031 40.484375 19.664062 40.484375 19.367188 L 40.484375 13.453125 C 40.484375 13.277344 40.480469 13.105469 40.46875 12.9375 L 40.46875 11.960938 C 41.328125 11.933594 42.441406 11.460938 42.742188 10.851562 C 42.898438 10.535156 42.949219 10.203125 42.894531 9.855469 C 42.84375 9.507812 42.695312 9.207031 42.449219 8.949219 Z M 42.449219 8.949219 " fill-opacity="1" fill-rule="nonzero"/></g><g clip-path="url(#88deb7aff4)"><g clip-path="url(#7511dc41b7)"><path fill="#fcd2ba" d="M 31.398438 14.480469 L 23.367188 14.941406 L 23.367188 18.101562 C 23.367188 19.441406 24.949219 20.53125 26.898438 20.53125 C 27.628906 20.53125 28.339844 20.375 28.9375 20.085938 L 29.359375 19.878906 C 30.582031 19.28125 32.214844 19.28125 33.4375 19.878906 L 33.859375 20.085938 C 34.457031 20.375 35.171875 20.53125 35.902344 20.53125 C 37.851562 20.53125 39.429688 19.441406 39.429688 18.101562 L 39.429688 14.941406 Z M 31.398438 14.480469 " fill-opacity="1" fill-rule="nonzero"/></g></g><g clip-path="url(#7de8e92813)"><g clip-path="url(#b5e7883a17)"><path fill="#cb1313" d="M 41.839844 15.917969 C 34.878906 15 27.917969 15 20.960938 15.917969 C 20.726562 14.695312 20.496094 13.472656 20.265625 12.25 C 27.6875 11.273438 35.109375 11.273438 42.535156 12.25 C 42.300781 13.472656 42.070312 14.695312 41.839844 15.917969 Z M 41.839844 15.917969 " fill-opacity="1" fill-rule="nonzero"/></g></g><g clip-path="url(#29c61c9a64)"><g clip-path="url(#9076d43461)"><path fill="#7982a1" d="M 27.847656 11.066406 L 34.953125 11.066406 C 35.167969 11.066406 35.355469 11.140625 35.511719 11.292969 C 35.664062 11.449219 35.742188 11.632812 35.742188 11.847656 L 35.742188 14.855469 C 35.742188 15.074219 35.664062 15.257812 35.511719 15.410156 C 35.355469 15.5625 35.167969 15.640625 34.953125 15.640625 L 27.847656 15.640625 C 27.628906 15.640625 27.441406 15.5625 27.289062 15.410156 C 27.132812 15.257812 27.054688 15.074219 27.054688 14.855469 L 27.054688 11.847656 C 27.054688 11.632812 27.132812 11.449219 27.289062 11.292969 C 27.441406 11.140625 27.628906 11.066406 27.847656 11.066406 Z M 27.847656 11.066406 " fill-opacity="1" fill-rule="nonzero"/></g></g><g clip-path="url(#99ae0c6efa)"><g clip-path="url(#bbc29930e4)"><path fill="#45506d" d="M 28.21875 11.78125 C 28.21875 11.863281 28.191406 11.933594 28.132812 11.988281 C 28.078125 12.046875 28.007812 12.074219 27.925781 12.074219 C 27.84375 12.074219 27.773438 12.046875 27.71875 11.988281 C 27.660156 11.933594 27.632812 11.863281 27.632812 11.78125 C 27.632812 11.703125 27.660156 11.632812 27.71875 11.578125 C 27.773438 11.519531 27.84375 11.492188 27.925781 11.492188 C 28.007812 11.492188 28.078125 11.519531 28.132812 11.578125 C 28.191406 11.632812 28.21875 11.703125 28.21875 11.78125 Z M 28.21875 11.78125 " fill-opacity="1" fill-rule="nonzero"/></g></g><g clip-path="url(#36e20ed7b7)"><g clip-path="url(#66667c7a0b)"><path fill="#45506d" d="M 28.21875 14.921875 C 28.21875 15.003906 28.191406 15.070312 28.132812 15.128906 C 28.078125 15.183594 28.007812 15.214844 27.925781 15.214844 C 27.84375 15.214844 27.773438 15.183594 27.71875 15.128906 C 27.660156 15.070312 27.632812 15.003906 27.632812 14.921875 C 27.632812 14.839844 27.660156 14.773438 27.71875 14.714844 C 27.773438 14.660156 27.84375 14.628906 27.925781 14.628906 C 28.007812 14.628906 28.078125 14.660156 28.132812 14.714844 C 28.191406 14.773438 28.21875 14.839844 28.21875 14.921875 Z M 28.21875 14.921875 " fill-opacity="1" fill-rule="nonzero"/></g></g><g clip-path="url(#79d9588396)"><g clip-path="url(#abea7efe6e)"><path fill="#45506d" d="M 35.167969 11.78125 C 35.167969 11.863281 35.136719 11.933594 35.082031 11.988281 C 35.023438 12.046875 34.953125 12.074219 34.871094 12.074219 C 34.792969 12.074219 34.722656 12.046875 34.664062 11.988281 C 34.605469 11.933594 34.578125 11.863281 34.578125 11.78125 C 34.578125 11.703125 34.605469 11.632812 34.664062 11.578125 C 34.722656 11.519531 34.792969 11.492188 34.871094 11.492188 C 34.953125 11.492188 35.023438 11.519531 35.082031 11.578125 C 35.136719 11.632812 35.167969 11.703125 35.167969 11.78125 Z M 35.167969 11.78125 " fill-opacity="1" fill-rule="nonzero"/></g></g><g clip-path="url(#424288eaf7)"><g clip-path="url(#9024bba515)"><path fill="#45506d" d="M 35.167969 14.921875 C 35.167969 15.003906 35.136719 15.070312 35.082031 15.128906 C 35.023438 15.183594 34.953125 15.214844 34.871094 15.214844 C 34.792969 15.214844 34.722656 15.183594 34.664062 15.128906 C 34.605469 15.070312 34.578125 15.003906 34.578125 14.921875 C 34.578125 14.839844 34.605469 14.773438 34.664062 14.714844 C 34.722656 14.660156 34.792969 14.628906 34.871094 14.628906 C 34.953125 14.628906 35.023438 14.660156 35.082031 14.714844 C 35.136719 14.773438 35.167969 14.839844 35.167969 14.921875 Z M 35.167969 14.921875 " fill-opacity="1" fill-rule="nonzero"/></g></g><path fill="#090d14" d="M 19.140625 26.367188 L 23.308594 25.6875 C 23.898438 25.585938 24.417969 25.734375 24.863281 26.132812 C 25.472656 26.675781 25.996094 27.691406 25.121094 29.457031 C 24.957031 29.78125 24.71875 30.039062 24.40625 30.226562 L 20.980469 32.265625 Z M 19.140625 26.367188 " fill-opacity="1" fill-rule="nonzero"/><path fill="#761715" d="M 23.308594 25.6875 C 23.308594 25.6875 25.523438 26.414062 25.441406 28.660156 C 25.441406 28.660156 26.179688 25.722656 26.988281 24.351562 Z M 23.308594 25.6875 " fill-opacity="1" fill-rule="nonzero"/><path fill="#761715" d="M 20.253906 26.128906 L 21.859375 25.90625 C 21.859375 25.90625 24.273438 28.121094 23.164062 30.988281 L 21.558594 32.074219 C 20.984375 32.417969 20.234375 32.289062 19.839844 31.753906 C 19.628906 31.46875 19.546875 31.09375 19.824219 30.625 C 20.574219 29.371094 20.253906 26.128906 20.253906 26.128906 Z M 20.253906 26.128906 " fill-opacity="1" fill-rule="nonzero"/><path fill="#1a2233" d="M 24.59375 36.371094 L 38.207031 36.371094 L 38.207031 38.03125 L 24.59375 38.03125 Z M 24.59375 36.371094 " fill-opacity="1" fill-rule="nonzero"/><path fill="#fcd2ba" d="M 39.125 35.09375 L 37.488281 35.46875 C 37.1875 35.539062 37 35.722656 36.929688 36.023438 C 36.890625 36.1875 36.90625 36.347656 36.976562 36.503906 C 37.046875 36.660156 37.160156 36.777344 37.3125 36.855469 L 37.554688 36.980469 C 37.554688 36.980469 35.894531 38.109375 37.464844 38.863281 C 37.464844 38.863281 37.3125 39.753906 38.820312 40.339844 C 40.328125 40.929688 42.917969 40.265625 42.523438 36.628906 C 42.128906 32.996094 39.125 35.09375 39.125 35.09375 Z M 39.125 35.09375 " fill-opacity="1" fill-rule="nonzero"/><path fill="#761715" d="M 40.117188 32.800781 L 43.746094 34.628906 L 42.535156 36.980469 L 38.90625 35.152344 Z M 40.117188 32.800781 " fill-opacity="1" fill-rule="nonzero"/><g clip-path="url(#973f3fb246)"><path fill="#fcd2ba" d="M 17.78125 30.410156 L 14.246094 25.921875 C 14.144531 25.792969 14.070312 25.644531 14.023438 25.484375 C 13.980469 25.324219 13.96875 25.160156 13.988281 24.996094 C 14.007812 24.832031 14.058594 24.675781 14.144531 24.53125 C 14.226562 24.386719 14.335938 24.261719 14.46875 24.160156 C 14.597656 24.058594 14.746094 23.984375 14.90625 23.941406 C 15.066406 23.894531 15.230469 23.882812 15.398438 23.902344 C 15.5625 23.921875 15.71875 23.972656 15.867188 24.054688 C 16.011719 24.132812 16.136719 24.238281 16.242188 24.367188 L 19.261719 28.15625 Z M 17.78125 30.410156 " fill-opacity="1" fill-rule="nonzero"/></g><path fill="#fcd2ba" d="M 20.359375 29.699219 L 21.210938 24.074219 C 21.238281 23.910156 21.230469 23.746094 21.1875 23.585938 C 21.148438 23.421875 21.078125 23.273438 20.976562 23.140625 C 20.878906 23.007812 20.753906 22.898438 20.609375 22.8125 C 20.464844 22.726562 20.3125 22.667969 20.144531 22.644531 C 19.980469 22.621094 19.816406 22.628906 19.652344 22.667969 C 19.488281 22.707031 19.339844 22.777344 19.207031 22.875 C 19.070312 22.972656 18.960938 23.089844 18.875 23.234375 C 18.785156 23.375 18.730469 23.527344 18.703125 23.691406 L 17.949219 28.457031 Z M 20.359375 29.699219 " fill-opacity="1" fill-rule="nonzero"/><path fill="#fcd2ba" d="M 17.09375 28.746094 L 16.484375 32.433594 C 16.484375 32.433594 18.433594 35.058594 20.382812 32.617188 C 20.382812 32.617188 22.921875 32.273438 22.332031 30.070312 C 22.332031 30.070312 22.734375 26.628906 19.890625 28.320312 C 17.046875 30.015625 17.09375 28.746094 17.09375 28.746094 Z M 17.09375 28.746094 " fill-opacity="1" fill-rule="nonzero"/><path fill="#fcd2ba" d="M 19.96875 29.738281 C 18.914062 28.039062 16.328125 28.277344 15.699219 30.167969 C 15.503906 30.75 15.53125 31.453125 16.027344 32.253906 C 17.609375 34.816406 19.210938 32.3125 19.210938 32.3125 C 19.210938 32.3125 20.382812 32.507812 20.382812 31.054688 C 20.382812 30.597656 20.222656 30.144531 19.96875 29.738281 Z M 19.96875 29.738281 " fill-opacity="1" fill-rule="nonzero"/><path fill="#fcd2ba" d="M 19.042969 27.285156 L 20.625 27.957031 C 20.625 27.957031 19.058594 28.789062 20.019531 29.816406 C 20.019531 29.816406 20.570312 30.230469 21.464844 29.699219 L 19.652344 31.328125 L 17.078125 29.699219 Z M 19.042969 27.285156 " fill-opacity="1" fill-rule="nonzero"/><path fill="#ecac90" d="M 18.632812 29.769531 C 18.632812 29.769531 19.378906 30.980469 21.160156 30 C 21.160156 30 19.589844 31.117188 20 32.265625 C 20 32.265625 19.058594 31.792969 19.648438 30.855469 C 19.648438 30.855469 18.859375 31.003906 18.632812 29.769531 Z M 18.632812 29.769531 " fill-opacity="1" fill-rule="nonzero"/><path fill="#000000" d="M 27.546875 16.089844 C 27.695312 16.089844 27.832031 16.117188 27.96875 16.171875 C 28.101562 16.226562 28.222656 16.304688 28.324219 16.40625 C 28.425781 16.511719 28.507812 16.628906 28.5625 16.761719 C 28.617188 16.894531 28.644531 17.03125 28.644531 17.175781 L 28.644531 18.140625 C 28.644531 18.285156 28.617188 18.421875 28.5625 18.558594 C 28.507812 18.691406 28.425781 18.808594 28.324219 18.910156 C 28.222656 19.011719 28.101562 19.089844 27.96875 19.144531 C 27.832031 19.199219 27.695312 19.226562 27.546875 19.226562 C 27.402344 19.226562 27.261719 19.199219 27.128906 19.144531 C 26.992188 19.089844 26.875 19.011719 26.773438 18.910156 C 26.667969 18.808594 26.589844 18.691406 26.535156 18.558594 C 26.480469 18.421875 26.449219 18.285156 26.449219 18.140625 L 26.449219 17.175781 C 26.449219 17.03125 26.480469 16.894531 26.535156 16.761719 C 26.589844 16.628906 26.667969 16.511719 26.773438 16.40625 C 26.875 16.304688 26.992188 16.226562 27.128906 16.171875 C 27.261719 16.117188 27.402344 16.089844 27.546875 16.089844 Z M 27.546875 16.089844 " fill-opacity="1" fill-rule="nonzero"/><path fill="#000000" d="M 35.25 16.089844 C 35.394531 16.089844 35.535156 16.117188 35.671875 16.171875 C 35.804688 16.226562 35.921875 16.304688 36.027344 16.40625 C 36.128906 16.511719 36.207031 16.628906 36.265625 16.761719 C 36.320312 16.894531 36.347656 17.03125 36.347656 17.175781 L 36.347656 18.140625 C 36.347656 18.285156 36.320312 18.421875 36.265625 18.558594 C 36.207031 18.691406 36.128906 18.808594 36.027344 18.910156 C 35.921875 19.011719 35.804688 19.089844 35.671875 19.144531 C 35.535156 19.199219 35.394531 19.226562 35.25 19.226562 C 35.105469 19.226562 34.964844 19.199219 34.832031 19.144531 C 34.695312 19.089844 34.578125 19.011719 34.472656 18.910156 C 34.371094 18.808594 34.292969 18.691406 34.234375 18.558594 C 34.179688 18.421875 34.152344 18.285156 34.152344 18.140625 L 34.152344 17.175781 C 34.152344 17.03125 34.179688 16.894531 34.234375 16.761719 C 34.292969 16.628906 34.371094 16.511719 34.472656 16.40625 C 34.578125 16.304688 34.695312 16.226562 34.832031 16.171875 C 34.964844 16.117188 35.105469 16.089844 35.25 16.089844 Z M 35.25 16.089844 " fill-opacity="1" fill-rule="nonzero"/></svg>