<svg xmlns="http://www.w3.org/2000/svg" xmlns:xlink="http://www.w3.org/1999/xlink" width="80" zoomAndPan="magnify" viewBox="0 0 60 60" height="80" preserveAspectRatio="xMidYMid meet" version="1.0"><defs><clipPath id="c14d5a9d3c"><path d="M 0 0 L 59.8125 0 L 59.8125 60 L 0 60 Z M 0 0 " clip-rule="nonzero"/></clipPath><clipPath id="cd13a98ed0"><path d="M 0 0 L 59.8125 0 L 59.8125 60 L 0 60 Z M 0 0 " clip-rule="nonzero"/></clipPath><clipPath id="822513f9ea"><rect x="0" width="60" y="0" height="60"/></clipPath><clipPath id="051bc6f8e7"><path d="M 23 23 L 45.882812 23 L 45.882812 41 L 23 41 Z M 23 23 " clip-rule="nonzero"/></clipPath><clipPath id="10325330c8"><path d="M 16.671875 17.136719 L 20 17.136719 L 20 20 L 16.671875 20 Z M 16.671875 17.136719 " clip-rule="nonzero"/></clipPath><clipPath id="9182cd3dc9"><path d="M 17.214844 18.28125 L 17.726562 17.71875 C 18.070312 17.335938 18.429688 17.320312 18.808594 17.664062 L 25.363281 23.636719 L 23.820312 25.339844 L 17.265625 19.367188 C 16.886719 19.023438 16.871094 18.660156 17.214844 18.28125 Z M 17.214844 18.28125 " clip-rule="nonzero"/></clipPath><clipPath id="3ed701fdd8"><path d="M 18 51 L 24 51 L 24 55.320312 L 18 55.320312 Z M 18 51 " clip-rule="nonzero"/></clipPath><clipPath id="115abbd5d4"><path d="M 38 51 L 45 51 L 45 55.320312 L 38 55.320312 Z M 38 51 " clip-rule="nonzero"/></clipPath><clipPath id="6105019ad7"><path d="M 27 23.144531 L 35 23.144531 L 35 30 L 27 30 Z M 27 23.144531 " clip-rule="nonzero"/></clipPath><clipPath id="533a63a744"><path d="M 37.234375 36.757812 L 25.382812 36.757812 C 25.09375 36.757812 24.84375 36.652344 24.636719 36.449219 C 24.433594 36.242188 24.328125 35.992188 24.328125 35.699219 L 24.328125 29.667969 C 24.328125 26.820312 26.476562 23.675781 29.300781 23.382812 L 31.308594 23.175781 L 33.316406 23.382812 C 36.140625 23.675781 38.285156 26.820312 38.285156 29.667969 L 38.285156 35.699219 C 38.285156 35.992188 38.183594 36.242188 37.976562 36.449219 C 37.773438 36.652344 37.523438 36.757812 37.234375 36.757812 Z M 37.234375 36.757812 " clip-rule="nonzero"/></clipPath><clipPath id="2ad56d3426"><path d="M 24.308594 23.144531 L 38.316406 23.144531 L 38.316406 32 L 24.308594 32 Z M 24.308594 23.144531 " clip-rule="nonzero"/></clipPath><clipPath id="2e60bcd1fe"><path d="M 37.234375 36.757812 L 25.382812 36.757812 C 25.09375 36.757812 24.84375 36.652344 24.636719 36.449219 C 24.433594 36.242188 24.328125 35.992188 24.328125 35.699219 L 24.328125 29.667969 C 24.328125 26.820312 26.476562 23.675781 29.300781 23.382812 L 31.308594 23.175781 L 33.316406 23.382812 C 36.140625 23.675781 38.285156 26.820312 38.285156 29.667969 L 38.285156 35.699219 C 38.285156 35.992188 38.183594 36.242188 37.976562 36.449219 C 37.773438 36.652344 37.523438 36.757812 37.234375 36.757812 Z M 37.234375 36.757812 " clip-rule="nonzero"/></clipPath><clipPath id="0c55977f49"><path d="M 38 10 L 45.882812 10 L 45.882812 15 L 38 15 Z M 38 10 " clip-rule="nonzero"/></clipPath><clipPath id="463b3da8ab"><path d="M 22 4.320312 L 43 4.320312 L 43 25 L 22 25 Z M 22 4.320312 " clip-rule="nonzero"/></clipPath><clipPath id="634a90f383"><path d="M 23 14 L 40 14 L 40 21 L 23 21 Z M 23 14 " clip-rule="nonzero"/></clipPath><clipPath id="49dc8b2986"><path d="M 42.210938 8.953125 C 40.730469 7.378906 37.117188 4.324219 31.460938 4.433594 C 31.054688 4.4375 30.648438 4.472656 30.25 4.546875 C 25.933594 5.066406 22.5625 8.664062 22.386719 13.09375 L 22.371094 13.09375 C 22.363281 13.210938 22.359375 13.332031 22.359375 13.453125 L 22.359375 19.371094 C 22.359375 19.660156 22.394531 19.945312 22.464844 20.222656 C 22.191406 20.695312 22.046875 21.140625 22.046875 21.523438 C 22.046875 23.570312 26.195312 24.625 31.308594 24.625 C 36.421875 24.625 40.570312 23.570312 40.570312 21.523438 C 40.570312 21.144531 40.425781 20.707031 40.164062 20.246094 C 40.238281 19.957031 40.273438 19.667969 40.273438 19.371094 L 40.273438 13.453125 C 40.273438 13.28125 40.269531 13.109375 40.257812 12.9375 L 40.257812 11.964844 C 41.105469 11.933594 42.203125 11.464844 42.5 10.855469 C 42.839844 10.152344 42.746094 9.519531 42.210938 8.953125 Z M 42.210938 8.953125 " clip-rule="nonzero"/></clipPath><clipPath id="2390e3340f"><path d="M 22.03125 11 L 42.703125 11 L 42.703125 16 L 22.03125 16 Z M 22.03125 11 " clip-rule="nonzero"/></clipPath><clipPath id="deac5bd530"><path d="M 42.210938 8.953125 C 40.730469 7.378906 37.117188 4.324219 31.460938 4.433594 C 31.054688 4.4375 30.648438 4.472656 30.25 4.546875 C 25.933594 5.066406 22.5625 8.664062 22.386719 13.09375 L 22.371094 13.09375 C 22.363281 13.210938 22.359375 13.332031 22.359375 13.453125 L 22.359375 19.371094 C 22.359375 19.660156 22.394531 19.945312 22.464844 20.222656 C 22.191406 20.695312 22.046875 21.140625 22.046875 21.523438 C 22.046875 23.570312 26.195312 24.625 31.308594 24.625 C 36.421875 24.625 40.570312 23.570312 40.570312 21.523438 C 40.570312 21.144531 40.425781 20.707031 40.164062 20.246094 C 40.238281 19.957031 40.273438 19.667969 40.273438 19.371094 L 40.273438 13.453125 C 40.273438 13.28125 40.269531 13.109375 40.257812 12.9375 L 40.257812 11.964844 C 41.105469 11.933594 42.203125 11.464844 42.5 10.855469 C 42.839844 10.152344 42.746094 9.519531 42.210938 8.953125 Z M 42.210938 8.953125 " clip-rule="nonzero"/></clipPath><clipPath id="37be5d186f"><path d="M 27 11 L 36 11 L 36 16 L 27 16 Z M 27 11 " clip-rule="nonzero"/></clipPath><clipPath id="fbd8a27475"><path d="M 42.210938 8.953125 C 40.730469 7.378906 37.117188 4.324219 31.460938 4.433594 C 31.054688 4.4375 30.648438 4.472656 30.25 4.546875 C 25.933594 5.066406 22.5625 8.664062 22.386719 13.09375 L 22.371094 13.09375 C 22.363281 13.210938 22.359375 13.332031 22.359375 13.453125 L 22.359375 19.371094 C 22.359375 19.660156 22.394531 19.945312 22.464844 20.222656 C 22.191406 20.695312 22.046875 21.140625 22.046875 21.523438 C 22.046875 23.570312 26.195312 24.625 31.308594 24.625 C 36.421875 24.625 40.570312 23.570312 40.570312 21.523438 C 40.570312 21.144531 40.425781 20.707031 40.164062 20.246094 C 40.238281 19.957031 40.273438 19.667969 40.273438 19.371094 L 40.273438 13.453125 C 40.273438 13.28125 40.269531 13.109375 40.257812 12.9375 L 40.257812 11.964844 C 41.105469 11.933594 42.203125 11.464844 42.5 10.855469 C 42.839844 10.152344 42.746094 9.519531 42.210938 8.953125 Z M 42.210938 8.953125 " clip-rule="nonzero"/></clipPath><clipPath id="d6f9a066cb"><path d="M 27 11 L 29 11 L 29 13 L 27 13 Z M 27 11 " clip-rule="nonzero"/></clipPath><clipPath id="d9fa8048b7"><path d="M 42.210938 8.953125 C 40.730469 7.378906 37.117188 4.324219 31.460938 4.433594 C 31.054688 4.4375 30.648438 4.472656 30.25 4.546875 C 25.933594 5.066406 22.5625 8.664062 22.386719 13.09375 L 22.371094 13.09375 C 22.363281 13.210938 22.359375 13.332031 22.359375 13.453125 L 22.359375 19.371094 C 22.359375 19.660156 22.394531 19.945312 22.464844 20.222656 C 22.191406 20.695312 22.046875 21.140625 22.046875 21.523438 C 22.046875 23.570312 26.195312 24.625 31.308594 24.625 C 36.421875 24.625 40.570312 23.570312 40.570312 21.523438 C 40.570312 21.144531 40.425781 20.707031 40.164062 20.246094 C 40.238281 19.957031 40.273438 19.667969 40.273438 19.371094 L 40.273438 13.453125 C 40.273438 13.28125 40.269531 13.109375 40.257812 12.9375 L 40.257812 11.964844 C 41.105469 11.933594 42.203125 11.464844 42.5 10.855469 C 42.839844 10.152344 42.746094 9.519531 42.210938 8.953125 Z M 42.210938 8.953125 " clip-rule="nonzero"/></clipPath><clipPath id="303e2cf692"><path d="M 27 14 L 29 14 L 29 16 L 27 16 Z M 27 14 " clip-rule="nonzero"/></clipPath><clipPath id="c18652f250"><path d="M 42.210938 8.953125 C 40.730469 7.378906 37.117188 4.324219 31.460938 4.433594 C 31.054688 4.4375 30.648438 4.472656 30.25 4.546875 C 25.933594 5.066406 22.5625 8.664062 22.386719 13.09375 L 22.371094 13.09375 C 22.363281 13.210938 22.359375 13.332031 22.359375 13.453125 L 22.359375 19.371094 C 22.359375 19.660156 22.394531 19.945312 22.464844 20.222656 C 22.191406 20.695312 22.046875 21.140625 22.046875 21.523438 C 22.046875 23.570312 26.195312 24.625 31.308594 24.625 C 36.421875 24.625 40.570312 23.570312 40.570312 21.523438 C 40.570312 21.144531 40.425781 20.707031 40.164062 20.246094 C 40.238281 19.957031 40.273438 19.667969 40.273438 19.371094 L 40.273438 13.453125 C 40.273438 13.28125 40.269531 13.109375 40.257812 12.9375 L 40.257812 11.964844 C 41.105469 11.933594 42.203125 11.464844 42.5 10.855469 C 42.839844 10.152344 42.746094 9.519531 42.210938 8.953125 Z M 42.210938 8.953125 " clip-rule="nonzero"/></clipPath><clipPath id="6b1fef751f"><path d="M 34 11 L 36 11 L 36 13 L 34 13 Z M 34 11 " clip-rule="nonzero"/></clipPath><clipPath id="eccc2e6b45"><path d="M 42.210938 8.953125 C 40.730469 7.378906 37.117188 4.324219 31.460938 4.433594 C 31.054688 4.4375 30.648438 4.472656 30.25 4.546875 C 25.933594 5.066406 22.5625 8.664062 22.386719 13.09375 L 22.371094 13.09375 C 22.363281 13.210938 22.359375 13.332031 22.359375 13.453125 L 22.359375 19.371094 C 22.359375 19.660156 22.394531 19.945312 22.464844 20.222656 C 22.191406 20.695312 22.046875 21.140625 22.046875 21.523438 C 22.046875 23.570312 26.195312 24.625 31.308594 24.625 C 36.421875 24.625 40.570312 23.570312 40.570312 21.523438 C 40.570312 21.144531 40.425781 20.707031 40.164062 20.246094 C 40.238281 19.957031 40.273438 19.667969 40.273438 19.371094 L 40.273438 13.453125 C 40.273438 13.28125 40.269531 13.109375 40.257812 12.9375 L 40.257812 11.964844 C 41.105469 11.933594 42.203125 11.464844 42.5 10.855469 C 42.839844 10.152344 42.746094 9.519531 42.210938 8.953125 Z M 42.210938 8.953125 " clip-rule="nonzero"/></clipPath><clipPath id="09e5d279b1"><path d="M 34 14 L 36 14 L 36 16 L 34 16 Z M 34 14 " clip-rule="nonzero"/></clipPath><clipPath id="5a49bcd9dc"><path d="M 42.210938 8.953125 C 40.730469 7.378906 37.117188 4.324219 31.460938 4.433594 C 31.054688 4.4375 30.648438 4.472656 30.25 4.546875 C 25.933594 5.066406 22.5625 8.664062 22.386719 13.09375 L 22.371094 13.09375 C 22.363281 13.210938 22.359375 13.332031 22.359375 13.453125 L 22.359375 19.371094 C 22.359375 19.660156 22.394531 19.945312 22.464844 20.222656 C 22.191406 20.695312 22.046875 21.140625 22.046875 21.523438 C 22.046875 23.570312 26.195312 24.625 31.308594 24.625 C 36.421875 24.625 40.570312 23.570312 40.570312 21.523438 C 40.570312 21.144531 40.425781 20.707031 40.164062 20.246094 C 40.238281 19.957031 40.273438 19.667969 40.273438 19.371094 L 40.273438 13.453125 C 40.273438 13.28125 40.269531 13.109375 40.257812 12.9375 L 40.257812 11.964844 C 41.105469 11.933594 42.203125 11.464844 42.5 10.855469 C 42.839844 10.152344 42.746094 9.519531 42.210938 8.953125 Z M 42.210938 8.953125 " clip-rule="nonzero"/></clipPath></defs><g clip-path="url(#c14d5a9d3c)"><g transform="matrix(1, 0, 0, 1, 0, -0.000000000000001479)"><g clip-path="url(#822513f9ea)"><g clip-path="url(#cd13a98ed0)"><path fill="#8c52ff" d="M 0 0 L 59.8125 0 L 59.8125 60.046875 L 0 60.046875 Z M 0 0 " fill-opacity="1" fill-rule="nonzero"/></g></g></g></g><g clip-path="url(#051bc6f8e7)"><path fill="#1a2233" d="M 45.792969 39.046875 C 44.738281 40.636719 42.566406 41.050781 40.964844 39.925781 C 34.742188 35.550781 28.84375 30.769531 23.273438 25.585938 C 24.050781 24.738281 24.832031 23.890625 25.613281 23.042969 C 31.917969 28.910156 38.644531 34.246094 45.792969 39.046875 Z M 45.792969 39.046875 " fill-opacity="1" fill-rule="nonzero"/></g><path fill="#1a2233" d="M 17.214844 18.28125 L 17.726562 17.71875 C 17.867188 17.558594 18.046875 17.476562 18.257812 17.464844 C 18.46875 17.457031 18.652344 17.523438 18.808594 17.664062 L 25.363281 23.636719 L 23.820312 25.339844 L 17.265625 19.367188 C 17.109375 19.226562 17.027344 19.046875 17.015625 18.835938 C 17.003906 18.625 17.070312 18.441406 17.214844 18.28125 Z M 17.214844 18.28125 " fill-opacity="1" fill-rule="nonzero"/><g clip-path="url(#10325330c8)"><g clip-path="url(#9182cd3dc9)"><path fill="#7982a1" d="M 16.382812 18.949219 L 18.308594 16.824219 L 19.386719 17.804688 L 17.457031 19.929688 Z M 16.382812 18.949219 " fill-opacity="1" fill-rule="nonzero"/></g></g><path fill="#7982a1" d="M 22.933594 25.445312 L 25.378906 22.742188 C 25.480469 22.632812 25.605469 22.574219 25.753906 22.566406 C 25.902344 22.558594 26.035156 22.605469 26.144531 22.707031 L 26.210938 22.765625 C 26.320312 22.867188 26.378906 22.992188 26.386719 23.140625 C 26.394531 23.292969 26.347656 23.421875 26.246094 23.535156 L 23.800781 26.234375 C 23.699219 26.34375 23.574219 26.402344 23.425781 26.410156 C 23.277344 26.417969 23.148438 26.371094 23.035156 26.269531 L 22.96875 26.210938 C 22.859375 26.109375 22.800781 25.984375 22.792969 25.835938 C 22.785156 25.683594 22.832031 25.554688 22.933594 25.445312 Z M 22.933594 25.445312 " fill-opacity="1" fill-rule="nonzero"/><g clip-path="url(#3ed701fdd8)"><path fill="#090d14" d="M 23.96875 51.914062 L 23.96875 55.316406 L 18.515625 55.316406 C 18.515625 55.316406 18.230469 53.976562 19.261719 53.046875 L 19.933594 51.738281 Z M 23.96875 51.914062 " fill-opacity="1" fill-rule="nonzero"/></g><g clip-path="url(#115abbd5d4)"><path fill="#090d14" d="M 38.648438 51.914062 L 38.648438 55.316406 L 44.101562 55.316406 C 44.101562 55.316406 44.386719 53.976562 43.351562 53.046875 L 42.679688 51.738281 Z M 38.648438 51.914062 " fill-opacity="1" fill-rule="nonzero"/></g><path fill="#353f59" d="M 23.960938 52.339844 L 19.675781 52.339844 L 21.828125 47.332031 L 26.113281 47.332031 Z M 23.960938 52.339844 " fill-opacity="1" fill-rule="nonzero"/><path fill="#353f59" d="M 38.65625 52.339844 L 42.941406 52.339844 L 40.789062 47.332031 L 36.503906 47.332031 Z M 38.65625 52.339844 " fill-opacity="1" fill-rule="nonzero"/><path fill="#090d14" d="M 43.554688 30.128906 C 42.546875 28.886719 41.011719 27.25 39.035156 25.917969 L 37.140625 28.863281 L 40.257812 32.058594 L 38.976562 34.996094 L 42.164062 36.867188 L 43.886719 33.917969 C 44.050781 33.625 44.167969 33.308594 44.238281 32.976562 C 44.308594 32.644531 44.328125 32.3125 44.300781 31.972656 C 44.269531 31.636719 44.191406 31.308594 44.066406 30.996094 C 43.9375 30.679688 43.769531 30.394531 43.554688 30.128906 Z M 43.554688 30.128906 " fill-opacity="1" fill-rule="nonzero"/><path fill="#090d14" d="M 23.726562 48.832031 C 21.828125 48.296875 20.445312 46.839844 21.277344 45.097656 L 24.484375 38.386719 C 24.601562 38.148438 24.769531 37.957031 24.996094 37.816406 C 25.222656 37.675781 25.46875 37.609375 25.734375 37.609375 L 33.230469 37.609375 L 28.597656 47.3125 C 28.15625 48.238281 26.335938 49.5625 23.726562 48.832031 Z M 23.726562 48.832031 " fill-opacity="1" fill-rule="nonzero"/><path fill="#090d14" d="M 38.890625 48.832031 C 40.789062 48.296875 42.167969 46.839844 41.339844 45.097656 L 38.132812 38.386719 C 38.015625 38.148438 37.84375 37.957031 37.621094 37.816406 C 37.394531 37.675781 37.148438 37.609375 36.882812 37.609375 L 29.386719 37.609375 L 34.019531 47.3125 C 34.460938 48.238281 36.28125 49.5625 38.890625 48.832031 Z M 38.890625 48.832031 " fill-opacity="1" fill-rule="nonzero"/><path fill="#761715" d="M 38.285156 29.054688 L 33.089844 29.054688 C 33.089844 29.054688 31.320312 24.964844 32.582031 24.648438 C 37.242188 23.464844 39.636719 25.960938 39.636719 25.960938 Z M 38.285156 29.054688 " fill-opacity="1" fill-rule="nonzero"/><path fill="#761715" d="M 24.328125 29.054688 L 29.527344 29.054688 C 29.527344 29.054688 31.296875 24.964844 30.035156 24.648438 C 25.375 23.464844 22.980469 25.960938 22.980469 25.960938 Z M 24.328125 29.054688 " fill-opacity="1" fill-rule="nonzero"/><path fill="#353f59" d="M 37.234375 36.757812 L 25.382812 36.757812 C 25.242188 36.757812 25.109375 36.730469 24.980469 36.675781 C 24.851562 36.621094 24.738281 36.546875 24.636719 36.449219 C 24.539062 36.347656 24.464844 36.234375 24.410156 36.105469 C 24.355469 35.976562 24.328125 35.839844 24.328125 35.699219 L 24.328125 29.667969 C 24.328125 26.820312 26.476562 23.675781 29.300781 23.382812 L 31.308594 23.175781 L 33.316406 23.382812 C 36.140625 23.675781 38.285156 26.820312 38.285156 29.667969 L 38.285156 35.699219 C 38.285156 35.839844 38.261719 35.976562 38.207031 36.105469 C 38.152344 36.234375 38.078125 36.347656 37.976562 36.449219 C 37.878906 36.546875 37.765625 36.621094 37.636719 36.675781 C 37.507812 36.730469 37.375 36.757812 37.234375 36.757812 Z M 37.234375 36.757812 " fill-opacity="1" fill-rule="nonzero"/><g clip-path="url(#6105019ad7)"><g clip-path="url(#533a63a744)"><path fill="#090d14" d="M 31.308594 23.527344 L 27.671875 23.527344 L 31.308594 29.28125 L 34.945312 23.527344 Z M 31.308594 23.527344 " fill-opacity="1" fill-rule="nonzero"/></g></g><g clip-path="url(#2ad56d3426)"><g clip-path="url(#2e60bcd1fe)"><path fill="#353f59" d="M 38.363281 20.5625 L 37.21875 19.839844 L 31.308594 29.265625 L 25.398438 19.839844 L 24.253906 20.5625 L 30.503906 30.546875 L 31.296875 31.816406 Z M 38.363281 20.5625 " fill-opacity="1" fill-rule="nonzero"/></g></g><path fill="#1a2233" d="M 33.0625 24.472656 C 33.0625 24.664062 33.019531 24.847656 32.929688 25.023438 C 32.839844 25.203125 32.714844 25.359375 32.550781 25.496094 C 32.382812 25.628906 32.195312 25.734375 31.980469 25.808594 C 31.765625 25.882812 31.542969 25.917969 31.308594 25.917969 C 31.074219 25.917969 30.851562 25.882812 30.636719 25.808594 C 30.421875 25.734375 30.230469 25.628906 30.066406 25.496094 C 29.902344 25.359375 29.777344 25.203125 29.6875 25.023438 C 29.597656 24.847656 29.554688 24.664062 29.554688 24.472656 C 29.554688 24.277344 29.597656 24.09375 29.6875 23.917969 C 29.777344 23.738281 29.902344 23.582031 30.066406 23.445312 C 30.230469 23.3125 30.421875 23.207031 30.636719 23.132812 C 30.851562 23.058594 31.074219 23.023438 31.308594 23.023438 C 31.542969 23.023438 31.765625 23.058594 31.980469 23.132812 C 32.195312 23.207031 32.382812 23.3125 32.550781 23.445312 C 32.714844 23.582031 32.839844 23.738281 32.929688 23.917969 C 33.019531 24.09375 33.0625 24.277344 33.0625 24.472656 Z M 33.0625 24.472656 " fill-opacity="1" fill-rule="nonzero"/><path fill="#353f59" d="M 22.359375 18.25 L 40.257812 18.25 L 40.257812 21.777344 L 22.359375 21.777344 Z M 22.359375 18.25 " fill-opacity="1" fill-rule="nonzero"/><g clip-path="url(#0c55977f49)"><path fill="#761715" d="M 45.882812 13.765625 L 38.417969 14.03125 L 38.214844 12.382812 L 45.527344 10.921875 Z M 45.882812 13.765625 " fill-opacity="1" fill-rule="nonzero"/></g><path fill="#761715" d="M 44.027344 17.308594 L 37.238281 14.1875 L 37.792969 12.625 L 44.984375 14.609375 Z M 44.027344 17.308594 " fill-opacity="1" fill-rule="nonzero"/><g clip-path="url(#463b3da8ab)"><path fill="#353f59" d="M 42.210938 8.953125 C 40.730469 7.378906 37.117188 4.324219 31.460938 4.433594 C 31.054688 4.4375 30.648438 4.472656 30.25 4.546875 C 25.933594 5.066406 22.5625 8.664062 22.386719 13.09375 L 22.371094 13.09375 C 22.363281 13.210938 22.359375 13.332031 22.359375 13.453125 L 22.359375 19.371094 C 22.359375 19.660156 22.394531 19.945312 22.464844 20.222656 C 22.191406 20.695312 22.046875 21.140625 22.046875 21.523438 C 22.046875 23.570312 26.195312 24.625 31.308594 24.625 C 36.421875 24.625 40.570312 23.570312 40.570312 21.523438 C 40.570312 21.144531 40.425781 20.707031 40.164062 20.246094 C 40.238281 19.957031 40.273438 19.667969 40.273438 19.371094 L 40.273438 13.453125 C 40.273438 13.28125 40.269531 13.109375 40.257812 12.9375 L 40.257812 11.964844 C 41.105469 11.933594 42.203125 11.464844 42.5 10.855469 C 42.652344 10.539062 42.703125 10.207031 42.652344 9.859375 C 42.597656 9.511719 42.453125 9.210938 42.210938 8.953125 Z M 42.210938 8.953125 " fill-opacity="1" fill-rule="nonzero"/></g><g clip-path="url(#634a90f383)"><g clip-path="url(#49dc8b2986)"><path fill="#fcd2ba" d="M 31.308594 14.480469 L 23.382812 14.941406 L 23.382812 18.101562 C 23.382812 19.445312 24.941406 20.53125 26.867188 20.53125 C 27.585938 20.53125 28.289062 20.375 28.878906 20.085938 L 29.296875 19.878906 C 30.503906 19.285156 32.113281 19.285156 33.320312 19.878906 L 33.738281 20.085938 C 34.324219 20.375 35.027344 20.53125 35.75 20.53125 C 37.671875 20.53125 39.234375 19.445312 39.234375 18.101562 L 39.234375 14.941406 Z M 31.308594 14.480469 " fill-opacity="1" fill-rule="nonzero"/></g></g><g clip-path="url(#2390e3340f)"><g clip-path="url(#deac5bd530)"><path fill="#cb1313" d="M 41.609375 15.917969 C 34.742188 15 27.875 15 21.007812 15.917969 C 20.777344 14.699219 20.550781 13.476562 20.320312 12.253906 C 27.644531 11.273438 34.96875 11.273438 42.292969 12.253906 C 42.066406 13.476562 41.835938 14.699219 41.609375 15.917969 Z M 41.609375 15.917969 " fill-opacity="1" fill-rule="nonzero"/></g></g><g clip-path="url(#37be5d186f)"><g clip-path="url(#fbd8a27475)"><path fill="#7982a1" d="M 27.804688 11.066406 L 34.8125 11.066406 C 35.027344 11.066406 35.210938 11.144531 35.367188 11.296875 C 35.519531 11.449219 35.59375 11.636719 35.59375 11.851562 L 35.59375 14.859375 C 35.59375 15.074219 35.519531 15.257812 35.367188 15.410156 C 35.210938 15.566406 35.027344 15.640625 34.8125 15.640625 L 27.804688 15.640625 C 27.589844 15.640625 27.402344 15.566406 27.25 15.410156 C 27.097656 15.257812 27.023438 15.074219 27.023438 14.859375 L 27.023438 11.851562 C 27.023438 11.636719 27.097656 11.449219 27.25 11.296875 C 27.402344 11.144531 27.589844 11.066406 27.804688 11.066406 Z M 27.804688 11.066406 " fill-opacity="1" fill-rule="nonzero"/></g></g><g clip-path="url(#d6f9a066cb)"><g clip-path="url(#d9fa8048b7)"><path fill="#45506d" d="M 28.171875 11.785156 C 28.171875 11.867188 28.144531 11.933594 28.085938 11.992188 C 28.03125 12.046875 27.960938 12.078125 27.882812 12.078125 C 27.800781 12.078125 27.734375 12.046875 27.675781 11.992188 C 27.621094 11.933594 27.589844 11.867188 27.589844 11.785156 C 27.589844 11.703125 27.621094 11.636719 27.675781 11.578125 C 27.734375 11.523438 27.800781 11.492188 27.882812 11.492188 C 27.960938 11.492188 28.03125 11.523438 28.085938 11.578125 C 28.144531 11.636719 28.171875 11.703125 28.171875 11.785156 Z M 28.171875 11.785156 " fill-opacity="1" fill-rule="nonzero"/></g></g><g clip-path="url(#303e2cf692)"><g clip-path="url(#c18652f250)"><path fill="#45506d" d="M 28.171875 14.925781 C 28.171875 15.003906 28.144531 15.074219 28.085938 15.128906 C 28.03125 15.1875 27.960938 15.214844 27.882812 15.214844 C 27.800781 15.214844 27.734375 15.1875 27.675781 15.128906 C 27.621094 15.074219 27.589844 15.003906 27.589844 14.925781 C 27.589844 14.84375 27.621094 14.773438 27.675781 14.71875 C 27.734375 14.660156 27.800781 14.632812 27.882812 14.632812 C 27.960938 14.632812 28.03125 14.660156 28.085938 14.71875 C 28.144531 14.773438 28.171875 14.84375 28.171875 14.925781 Z M 28.171875 14.925781 " fill-opacity="1" fill-rule="nonzero"/></g></g><g clip-path="url(#6b1fef751f)"><g clip-path="url(#eccc2e6b45)"><path fill="#45506d" d="M 35.027344 11.785156 C 35.027344 11.867188 34.996094 11.933594 34.941406 11.992188 C 34.882812 12.046875 34.816406 12.078125 34.734375 12.078125 C 34.65625 12.078125 34.585938 12.046875 34.53125 11.992188 C 34.472656 11.933594 34.445312 11.867188 34.445312 11.785156 C 34.445312 11.703125 34.472656 11.636719 34.53125 11.578125 C 34.585938 11.523438 34.65625 11.492188 34.734375 11.492188 C 34.816406 11.492188 34.882812 11.523438 34.941406 11.578125 C 34.996094 11.636719 35.027344 11.703125 35.027344 11.785156 Z M 35.027344 11.785156 " fill-opacity="1" fill-rule="nonzero"/></g></g><g clip-path="url(#09e5d279b1)"><g clip-path="url(#5a49bcd9dc)"><path fill="#45506d" d="M 35.027344 14.925781 C 35.027344 15.003906 34.996094 15.074219 34.941406 15.128906 C 34.882812 15.1875 34.816406 15.214844 34.734375 15.214844 C 34.65625 15.214844 34.585938 15.1875 34.53125 15.128906 C 34.472656 15.074219 34.445312 15.003906 34.445312 14.925781 C 34.445312 14.84375 34.472656 14.773438 34.53125 14.71875 C 34.585938 14.660156 34.65625 14.632812 34.734375 14.632812 C 34.816406 14.632812 34.882812 14.660156 34.941406 14.71875 C 34.996094 14.773438 35.027344 14.84375 35.027344 14.925781 Z M 35.027344 14.925781 " fill-opacity="1" fill-rule="nonzero"/></g></g><path fill="#090d14" d="M 19.210938 26.367188 L 23.324219 25.6875 C 23.910156 25.589844 24.421875 25.738281 24.859375 26.132812 C 25.457031 26.675781 25.980469 27.691406 25.113281 29.457031 C 24.953125 29.78125 24.71875 30.039062 24.40625 30.226562 L 21.03125 32.265625 Z M 19.210938 26.367188 " fill-opacity="1" fill-rule="nonzero"/><path fill="#761715" d="M 23.324219 25.6875 C 23.324219 25.6875 25.511719 26.414062 25.429688 28.660156 C 25.429688 28.660156 26.15625 25.722656 26.953125 24.351562 Z M 23.324219 25.6875 " fill-opacity="1" fill-rule="nonzero"/><path fill="#761715" d="M 20.308594 26.128906 L 21.894531 25.90625 C 21.894531 25.90625 24.277344 28.121094 23.179688 30.988281 L 21.597656 32.074219 C 21.035156 32.417969 20.292969 32.289062 19.902344 31.753906 C 19.695312 31.46875 19.613281 31.09375 19.890625 30.625 C 20.625 29.371094 20.308594 26.128906 20.308594 26.128906 Z M 20.308594 26.128906 " fill-opacity="1" fill-rule="nonzero"/><path fill="#ecac90" d="M 17.890625 26.691406 C 17.890625 26.691406 16.503906 26.070312 17.078125 23.898438 C 17.648438 21.726562 19.453125 21.851562 19.875 23.175781 C 20.296875 24.5 19.183594 25.074219 20.597656 26.191406 C 22.007812 27.304688 22.417969 28.574219 22.046875 29.507812 C 22.046875 29.507812 22.492188 33.550781 19.09375 32.039062 C 15.695312 30.53125 17.890625 26.691406 17.890625 26.691406 Z M 17.890625 26.691406 " fill-opacity="1" fill-rule="nonzero"/><path fill="#fcd2ba" d="M 17.996094 26.371094 C 17.996094 26.371094 13.632812 26.289062 15.695312 31.394531 C 17.316406 35.417969 23.273438 31.617188 20.160156 29.765625 C 20.160156 29.765625 21.105469 26.28125 17.996094 26.371094 Z M 17.996094 26.371094 " fill-opacity="1" fill-rule="nonzero"/><path fill="#1a2233" d="M 24.59375 36.371094 L 38.023438 36.371094 L 38.023438 38.027344 L 24.59375 38.027344 Z M 24.59375 36.371094 " fill-opacity="1" fill-rule="nonzero"/><path fill="#fcd2ba" d="M 38.929688 35.089844 L 37.316406 35.46875 C 37.019531 35.539062 36.835938 35.722656 36.765625 36.023438 C 36.726562 36.1875 36.738281 36.347656 36.808594 36.503906 C 36.878906 36.65625 36.992188 36.773438 37.140625 36.855469 L 37.382812 36.980469 C 37.382812 36.980469 35.742188 38.109375 37.292969 38.863281 C 37.292969 38.863281 37.140625 39.75 38.628906 40.339844 C 40.117188 40.929688 42.675781 40.265625 42.285156 36.628906 C 41.894531 32.996094 38.929688 35.089844 38.929688 35.089844 Z M 38.929688 35.089844 " fill-opacity="1" fill-rule="nonzero"/><path fill="#761715" d="M 39.910156 32.800781 L 43.488281 34.628906 L 42.292969 36.980469 L 38.714844 35.152344 Z M 39.910156 32.800781 " fill-opacity="1" fill-rule="nonzero"/><path fill="#000000" d="M 27.5 16.089844 C 27.644531 16.089844 27.78125 16.121094 27.914062 16.175781 C 28.046875 16.230469 28.164062 16.308594 28.265625 16.410156 C 28.367188 16.511719 28.445312 16.628906 28.5 16.761719 C 28.554688 16.894531 28.582031 17.035156 28.582031 17.175781 L 28.582031 18.144531 C 28.582031 18.285156 28.554688 18.425781 28.5 18.558594 C 28.445312 18.691406 28.367188 18.808594 28.265625 18.910156 C 28.164062 19.011719 28.046875 19.089844 27.914062 19.144531 C 27.78125 19.199219 27.644531 19.230469 27.5 19.230469 C 27.355469 19.230469 27.21875 19.199219 27.085938 19.144531 C 26.953125 19.089844 26.835938 19.011719 26.734375 18.910156 C 26.632812 18.808594 26.554688 18.691406 26.5 18.558594 C 26.445312 18.425781 26.417969 18.285156 26.417969 18.144531 L 26.417969 17.175781 C 26.417969 17.035156 26.445312 16.894531 26.5 16.761719 C 26.554688 16.628906 26.632812 16.511719 26.734375 16.410156 C 26.835938 16.308594 26.953125 16.230469 27.085938 16.175781 C 27.21875 16.121094 27.355469 16.089844 27.5 16.089844 Z M 27.5 16.089844 " fill-opacity="1" fill-rule="nonzero"/><path fill="#000000" d="M 35.097656 16.089844 C 35.242188 16.089844 35.382812 16.121094 35.515625 16.175781 C 35.644531 16.230469 35.761719 16.308594 35.863281 16.410156 C 35.964844 16.511719 36.042969 16.628906 36.101562 16.761719 C 36.15625 16.894531 36.183594 17.035156 36.183594 17.175781 L 36.183594 18.144531 C 36.183594 18.285156 36.15625 18.425781 36.101562 18.558594 C 36.042969 18.691406 35.964844 18.808594 35.863281 18.910156 C 35.761719 19.011719 35.644531 19.089844 35.515625 19.144531 C 35.382812 19.199219 35.242188 19.230469 35.097656 19.230469 C 34.957031 19.230469 34.816406 19.199219 34.683594 19.144531 C 34.550781 19.089844 34.433594 19.011719 34.332031 18.910156 C 34.230469 18.808594 34.152344 18.691406 34.097656 18.558594 C 34.042969 18.425781 34.015625 18.285156 34.015625 18.144531 L 34.015625 17.175781 C 34.015625 17.035156 34.042969 16.894531 34.097656 16.761719 C 34.152344 16.628906 34.230469 16.511719 34.332031 16.410156 C 34.433594 16.308594 34.550781 16.230469 34.683594 16.175781 C 34.816406 16.121094 34.957031 16.089844 35.097656 16.089844 Z M 35.097656 16.089844 " fill-opacity="1" fill-rule="nonzero"/></svg>