<svg xmlns="http://www.w3.org/2000/svg" xmlns:xlink="http://www.w3.org/1999/xlink" width="80" zoomAndPan="magnify" viewBox="0 0 60 60" height="80" preserveAspectRatio="xMidYMid meet" version="1.0"><defs><clipPath id="02add7e58d"><path d="M 0 0 L 59.8125 0 L 59.8125 60 L 0 60 Z M 0 0 " clip-rule="nonzero"/></clipPath><clipPath id="e6d29e0298"><path d="M 0 0 L 59.8125 0 L 59.8125 60 L 0 60 Z M 0 0 " clip-rule="nonzero"/></clipPath><clipPath id="b9e140bc74"><rect x="0" width="60" y="0" height="60"/></clipPath><clipPath id="c3d7077521"><path d="M 18.125 23.363281 L 21 23.363281 L 21 26 L 18.125 26 Z M 18.125 23.363281 " clip-rule="nonzero"/></clipPath><clipPath id="6d86a428e0"><path d="M 18.835938 24.179688 L 18.960938 24.058594 C 19.40625 23.613281 19.855469 23.617188 20.300781 24.058594 L 25.757812 29.5 L 24.292969 30.953125 L 18.835938 25.515625 C 18.390625 25.070312 18.390625 24.625 18.835938 24.179688 Z M 18.835938 24.179688 " clip-rule="nonzero"/></clipPath><clipPath id="85ec38e6c6"><path d="M 27 48 L 33 48 L 33 55.320312 L 27 55.320312 Z M 27 48 " clip-rule="nonzero"/></clipPath><clipPath id="78d2914ad2"><path d="M 16.25 17 L 36 17 L 36 27 L 16.25 27 Z M 16.25 17 " clip-rule="nonzero"/></clipPath><clipPath id="06f279cb96"><path d="M 39.902344 9.082031 C 37.820312 7.417969 32.886719 4.316406 25.980469 5.40625 C 25.480469 5.476562 24.992188 5.589844 24.515625 5.742188 C 19.320312 7.097656 15.800781 12.039062 16.332031 17.441406 L 16.3125 17.445312 C 16.324219 17.59375 16.339844 17.738281 16.363281 17.886719 L 17.359375 25.070312 C 17.410156 25.421875 17.5 25.761719 17.628906 26.089844 C 17.410156 26.617188 17.3125 27.167969 17.339844 27.738281 C 17.546875 31.75 22.9375 30.808594 29.199219 29.949219 C 32.449219 29.5 39.988281 27.132812 39.285156 22.058594 L 38.285156 14.871094 C 38.257812 14.664062 38.222656 14.453125 38.183594 14.25 L 38.015625 13.066406 C 39.050781 12.886719 40.3125 12.132812 40.574219 11.339844 C 40.871094 10.433594 40.648438 9.679688 39.902344 9.082031 Z M 39.902344 9.082031 " clip-rule="nonzero"/></clipPath><clipPath id="39994ac77b"><path d="M 16.25 13 L 40.699219 13 L 40.699219 20 L 16.25 20 Z M 16.25 13 " clip-rule="nonzero"/></clipPath><clipPath id="6169db15ec"><path d="M 39.902344 9.082031 C 37.820312 7.417969 32.886719 4.316406 25.980469 5.40625 C 25.480469 5.476562 24.992188 5.589844 24.515625 5.742188 C 19.320312 7.097656 15.800781 12.039062 16.332031 17.441406 L 16.3125 17.445312 C 16.324219 17.59375 16.339844 17.738281 16.363281 17.886719 L 17.359375 25.070312 C 17.410156 25.421875 17.5 25.761719 17.628906 26.089844 C 17.410156 26.617188 17.3125 27.167969 17.339844 27.738281 C 17.546875 31.75 22.9375 30.808594 29.199219 29.949219 C 32.449219 29.5 39.988281 27.132812 39.285156 22.058594 L 38.285156 14.871094 C 38.257812 14.664062 38.222656 14.453125 38.183594 14.25 L 38.015625 13.066406 C 39.050781 12.886719 40.3125 12.132812 40.574219 11.339844 C 40.871094 10.433594 40.648438 9.679688 39.902344 9.082031 Z M 39.902344 9.082031 " clip-rule="nonzero"/></clipPath><clipPath id="8806896475"><path d="M 18 12 L 30 12 L 30 20 L 18 20 Z M 18 12 " clip-rule="nonzero"/></clipPath><clipPath id="df19f76656"><path d="M 39.902344 9.082031 C 37.820312 7.417969 32.886719 4.316406 25.980469 5.40625 C 25.480469 5.476562 24.992188 5.589844 24.515625 5.742188 C 19.320312 7.097656 15.800781 12.039062 16.332031 17.441406 L 16.3125 17.445312 C 16.324219 17.59375 16.339844 17.738281 16.363281 17.886719 L 17.359375 25.070312 C 17.410156 25.421875 17.5 25.761719 17.628906 26.089844 C 17.410156 26.617188 17.3125 27.167969 17.339844 27.738281 C 17.546875 31.75 22.9375 30.808594 29.199219 29.949219 C 32.449219 29.5 39.988281 27.132812 39.285156 22.058594 L 38.285156 14.871094 C 38.257812 14.664062 38.222656 14.453125 38.183594 14.25 L 38.015625 13.066406 C 39.050781 12.886719 40.3125 12.132812 40.574219 11.339844 C 40.871094 10.433594 40.648438 9.679688 39.902344 9.082031 Z M 39.902344 9.082031 " clip-rule="nonzero"/></clipPath><clipPath id="bb53a1eb3f"><path d="M 19 14 L 21 14 L 21 16 L 19 16 Z M 19 14 " clip-rule="nonzero"/></clipPath><clipPath id="ba553b0791"><path d="M 39.902344 9.082031 C 37.820312 7.417969 32.886719 4.316406 25.980469 5.40625 C 25.480469 5.476562 24.992188 5.589844 24.515625 5.742188 C 19.320312 7.097656 15.800781 12.039062 16.332031 17.441406 L 16.3125 17.445312 C 16.324219 17.59375 16.339844 17.738281 16.363281 17.886719 L 17.359375 25.070312 C 17.410156 25.421875 17.5 25.761719 17.628906 26.089844 C 17.410156 26.617188 17.3125 27.167969 17.339844 27.738281 C 17.546875 31.75 22.9375 30.808594 29.199219 29.949219 C 32.449219 29.5 39.988281 27.132812 39.285156 22.058594 L 38.285156 14.871094 C 38.257812 14.664062 38.222656 14.453125 38.183594 14.25 L 38.015625 13.066406 C 39.050781 12.886719 40.3125 12.132812 40.574219 11.339844 C 40.871094 10.433594 40.648438 9.679688 39.902344 9.082031 Z M 39.902344 9.082031 " clip-rule="nonzero"/></clipPath><clipPath id="8880c9b661"><path d="M 20 18 L 21 18 L 21 20 L 20 20 Z M 20 18 " clip-rule="nonzero"/></clipPath><clipPath id="1d3868d92f"><path d="M 39.902344 9.082031 C 37.820312 7.417969 32.886719 4.316406 25.980469 5.40625 C 25.480469 5.476562 24.992188 5.589844 24.515625 5.742188 C 19.320312 7.097656 15.800781 12.039062 16.332031 17.441406 L 16.3125 17.445312 C 16.324219 17.59375 16.339844 17.738281 16.363281 17.886719 L 17.359375 25.070312 C 17.410156 25.421875 17.5 25.761719 17.628906 26.089844 C 17.410156 26.617188 17.3125 27.167969 17.339844 27.738281 C 17.546875 31.75 22.9375 30.808594 29.199219 29.949219 C 32.449219 29.5 39.988281 27.132812 39.285156 22.058594 L 38.285156 14.871094 C 38.257812 14.664062 38.222656 14.453125 38.183594 14.25 L 38.015625 13.066406 C 39.050781 12.886719 40.3125 12.132812 40.574219 11.339844 C 40.871094 10.433594 40.648438 9.679688 39.902344 9.082031 Z M 39.902344 9.082031 " clip-rule="nonzero"/></clipPath><clipPath id="40dc378fa4"><path d="M 27 13 L 29 13 L 29 15 L 27 15 Z M 27 13 " clip-rule="nonzero"/></clipPath><clipPath id="221a64dec4"><path d="M 39.902344 9.082031 C 37.820312 7.417969 32.886719 4.316406 25.980469 5.40625 C 25.480469 5.476562 24.992188 5.589844 24.515625 5.742188 C 19.320312 7.097656 15.800781 12.039062 16.332031 17.441406 L 16.3125 17.445312 C 16.324219 17.59375 16.339844 17.738281 16.363281 17.886719 L 17.359375 25.070312 C 17.410156 25.421875 17.5 25.761719 17.628906 26.089844 C 17.410156 26.617188 17.3125 27.167969 17.339844 27.738281 C 17.546875 31.75 22.9375 30.808594 29.199219 29.949219 C 32.449219 29.5 39.988281 27.132812 39.285156 22.058594 L 38.285156 14.871094 C 38.257812 14.664062 38.222656 14.453125 38.183594 14.25 L 38.015625 13.066406 C 39.050781 12.886719 40.3125 12.132812 40.574219 11.339844 C 40.871094 10.433594 40.648438 9.679688 39.902344 9.082031 Z M 39.902344 9.082031 " clip-rule="nonzero"/></clipPath><clipPath id="3893389347"><path d="M 28 17 L 30 17 L 30 18 L 28 18 Z M 28 17 " clip-rule="nonzero"/></clipPath><clipPath id="ee9520a903"><path d="M 39.902344 9.082031 C 37.820312 7.417969 32.886719 4.316406 25.980469 5.40625 C 25.480469 5.476562 24.992188 5.589844 24.515625 5.742188 C 19.320312 7.097656 15.800781 12.039062 16.332031 17.441406 L 16.3125 17.445312 C 16.324219 17.59375 16.339844 17.738281 16.363281 17.886719 L 17.359375 25.070312 C 17.410156 25.421875 17.5 25.761719 17.628906 26.089844 C 17.410156 26.617188 17.3125 27.167969 17.339844 27.738281 C 17.546875 31.75 22.9375 30.808594 29.199219 29.949219 C 32.449219 29.5 39.988281 27.132812 39.285156 22.058594 L 38.285156 14.871094 C 38.257812 14.664062 38.222656 14.453125 38.183594 14.25 L 38.015625 13.066406 C 39.050781 12.886719 40.3125 12.132812 40.574219 11.339844 C 40.871094 10.433594 40.648438 9.679688 39.902344 9.082031 Z M 39.902344 9.082031 " clip-rule="nonzero"/></clipPath><clipPath id="296160de04"><path d="M 40 31 L 47.839844 31 L 47.839844 37.730469 L 40 37.730469 Z M 40 31 " clip-rule="nonzero"/></clipPath><clipPath id="c49a7a4763"><path d="M 34.886719 30.117188 L 34.765625 30.59375 C 34.621094 31.15625 34.691406 31.691406 34.976562 32.195312 C 35.265625 32.699219 35.6875 33.035156 36.242188 33.203125 C 38.011719 33.730469 40.699219 34.941406 43.390625 37.714844 L 47.804688 33.757812 C 47.804688 33.757812 42.945312 30.289062 37.660156 28.585938 C 37.0625 28.394531 36.492188 28.453125 35.941406 28.753906 C 35.390625 29.058594 35.039062 29.511719 34.886719 30.117188 Z M 34.886719 30.117188 " clip-rule="nonzero"/></clipPath></defs><g clip-path="url(#02add7e58d)"><g transform="matrix(1, 0, 0, 1, 0, -0.000000000000001479)"><g clip-path="url(#b9e140bc74)"><g clip-path="url(#e6d29e0298)"><path fill="#ff3131" d="M 0 0 L 59.8125 0 L 59.8125 60.046875 L 0 60.046875 Z M 0 0 " fill-opacity="1" fill-rule="nonzero"/></g></g></g></g><path fill="#1a2233" d="M 43.480469 44.152344 C 42.460938 45.527344 40.488281 45.800781 39.09375 44.726562 C 33.683594 40.546875 28.582031 36.019531 23.792969 31.148438 C 24.53125 30.425781 25.269531 29.699219 26.007812 28.976562 C 31.429688 34.492188 37.253906 39.550781 43.480469 44.152344 Z M 43.480469 44.152344 " fill-opacity="1" fill-rule="nonzero"/><path fill="#1a2233" d="M 18.835938 24.179688 L 18.960938 24.058594 C 19.144531 23.875 19.367188 23.785156 19.628906 23.785156 C 19.890625 23.785156 20.117188 23.875 20.300781 24.058594 L 25.757812 29.5 L 24.292969 30.953125 L 18.835938 25.515625 C 18.652344 25.332031 18.558594 25.109375 18.558594 24.847656 C 18.558594 24.585938 18.652344 24.363281 18.835938 24.179688 Z M 18.835938 24.179688 " fill-opacity="1" fill-rule="nonzero"/><g clip-path="url(#c3d7077521)"><g clip-path="url(#6d86a428e0)"><path fill="#7982a1" d="M 17.878906 24.921875 L 19.707031 23.105469 L 20.632812 24.027344 L 18.804688 25.84375 Z M 17.878906 24.921875 " fill-opacity="1" fill-rule="nonzero"/></g></g><path fill="#7982a1" d="M 23.519531 30.976562 L 25.785156 28.730469 C 25.886719 28.625 26.011719 28.574219 26.160156 28.574219 C 26.304688 28.574219 26.429688 28.628906 26.53125 28.730469 C 26.636719 28.832031 26.6875 28.957031 26.6875 29.101562 C 26.6875 29.246094 26.632812 29.371094 26.53125 29.472656 L 24.269531 31.722656 C 24.164062 31.824219 24.039062 31.875 23.894531 31.875 C 23.75 31.875 23.625 31.824219 23.519531 31.722656 C 23.417969 31.617188 23.367188 31.496094 23.367188 31.347656 C 23.367188 31.203125 23.417969 31.082031 23.519531 30.976562 Z M 23.519531 30.976562 " fill-opacity="1" fill-rule="nonzero"/><g clip-path="url(#85ec38e6c6)"><path fill="#090d14" d="M 27.703125 50.128906 L 27.886719 51.617188 C 27.886719 51.617188 28.191406 55.3125 30.34375 55.019531 C 32.496094 54.722656 32.753906 52.613281 31.972656 49.507812 C 31.195312 46.402344 27.703125 50.128906 27.703125 50.128906 Z M 27.703125 50.128906 " fill-opacity="1" fill-rule="nonzero"/></g><path fill="#7982a1" d="M 25.878906 48.4375 L 27.886719 51.617188 C 27.886719 51.617188 30.339844 53.167969 31.972656 49.507812 L 31.121094 45.367188 Z M 25.878906 48.4375 " fill-opacity="1" fill-rule="nonzero"/><path fill="#090d14" d="M 25.191406 31.390625 L 21.324219 35.902344 L 24.171875 39.121094 L 26.808594 36.011719 Z M 25.191406 31.390625 " fill-opacity="1" fill-rule="nonzero"/><path fill="#761715" d="M 25.84375 29.976562 L 24.207031 31.9375 C 24.089844 32.078125 24.03125 32.242188 24.035156 32.425781 C 24.035156 32.605469 24.097656 32.769531 24.21875 32.90625 L 26.996094 36.050781 Z M 25.84375 29.976562 " fill-opacity="1" fill-rule="nonzero"/><path fill="#353f59" d="M 25.65625 29.433594 C 25.65625 29.433594 25.285156 37.640625 23.390625 40.5625 L 34.796875 44.515625 C 34.796875 44.515625 40.414062 36.398438 34.796875 27.363281 C 29.183594 18.324219 25.65625 29.433594 25.65625 29.433594 Z M 25.65625 29.433594 " fill-opacity="1" fill-rule="nonzero"/><path fill="#090d14" d="M 27.105469 29.507812 C 27.105469 29.507812 27.765625 35.089844 28.421875 36.53125 C 28.421875 36.53125 31.382812 32.980469 32.253906 28.398438 C 33.125 23.8125 27.996094 26.992188 27.996094 26.992188 Z M 27.105469 29.507812 " fill-opacity="1" fill-rule="nonzero"/><path fill="#1a2233" d="M 29.890625 27.390625 C 30.128906 27.429688 30.351562 27.523438 30.554688 27.671875 C 30.761719 27.816406 30.929688 28.007812 31.066406 28.242188 C 31.203125 28.472656 31.292969 28.730469 31.339844 29.015625 C 31.386719 29.296875 31.386719 29.582031 31.339844 29.871094 C 31.289062 30.160156 31.199219 30.433594 31.0625 30.683594 C 30.925781 30.9375 30.753906 31.152344 30.546875 31.328125 C 30.34375 31.503906 30.121094 31.628906 29.878906 31.703125 C 29.640625 31.777344 29.398438 31.792969 29.15625 31.753906 C 28.917969 31.714844 28.695312 31.621094 28.488281 31.472656 C 28.285156 31.324219 28.117188 31.132812 27.980469 30.902344 C 27.84375 30.667969 27.753906 30.410156 27.703125 30.128906 C 27.65625 29.84375 27.65625 29.558594 27.707031 29.269531 C 27.753906 28.980469 27.847656 28.710938 27.984375 28.457031 C 28.121094 28.207031 28.292969 27.992188 28.496094 27.816406 C 28.703125 27.640625 28.925781 27.511719 29.164062 27.441406 C 29.40625 27.367188 29.648438 27.347656 29.890625 27.390625 Z M 29.890625 27.390625 " fill-opacity="1" fill-rule="nonzero"/><path fill="#353f59" d="M 17.171875 23.710938 L 39.074219 20.699219 L 39.253906 21.980469 C 39.308594 22.378906 39.285156 22.773438 39.183594 23.164062 C 39.078125 23.550781 38.90625 23.90625 38.664062 24.226562 C 38.417969 24.546875 38.121094 24.808594 37.773438 25.011719 C 37.425781 25.214844 37.050781 25.34375 36.652344 25.398438 L 17.765625 27.996094 Z M 17.171875 23.710938 " fill-opacity="1" fill-rule="nonzero"/><path fill="#761715" d="M 45.207031 14.304688 L 36.113281 15.882812 L 35.585938 13.917969 L 44.292969 10.914062 Z M 45.207031 14.304688 " fill-opacity="1" fill-rule="nonzero"/><path fill="#761715" d="M 43.535156 18.921875 L 34.699219 16.277344 L 35.109375 14.285156 L 44.246094 15.480469 Z M 43.535156 18.921875 " fill-opacity="1" fill-rule="nonzero"/><path fill="#353f59" d="M 39.902344 9.082031 C 37.820312 7.417969 32.886719 4.316406 25.980469 5.40625 C 25.480469 5.476562 24.992188 5.589844 24.515625 5.742188 C 19.320312 7.097656 15.800781 12.039062 16.332031 17.441406 L 16.3125 17.445312 C 16.324219 17.59375 16.339844 17.738281 16.363281 17.886719 L 17.359375 25.070312 C 17.410156 25.421875 17.5 25.761719 17.628906 26.089844 C 17.410156 26.617188 17.3125 27.167969 17.339844 27.738281 C 17.546875 31.75 22.9375 30.808594 29.199219 29.949219 C 32.449219 29.5 39.988281 27.132812 39.285156 22.058594 L 38.285156 14.871094 C 38.257812 14.664062 38.222656 14.453125 38.183594 14.25 L 38.015625 13.066406 C 39.050781 12.886719 40.3125 12.132812 40.574219 11.339844 C 40.707031 10.929688 40.714844 10.519531 40.589844 10.105469 C 40.46875 9.695312 40.238281 9.351562 39.902344 9.082031 Z M 39.902344 9.082031 " fill-opacity="1" fill-rule="nonzero"/><g clip-path="url(#78d2914ad2)"><g clip-path="url(#06f279cb96)"><path fill="#fcd2ba" d="M 25.441406 17.847656 L 15.820312 19.742188 L 16.351562 23.578125 C 16.578125 25.207031 18.671875 26.265625 21.027344 25.945312 C 21.910156 25.824219 22.742188 25.515625 23.414062 25.0625 L 23.890625 24.742188 C 25.265625 23.816406 27.238281 23.546875 28.816406 24.066406 L 29.359375 24.246094 C 30.128906 24.5 31.015625 24.570312 31.898438 24.449219 C 34.253906 24.125 35.980469 22.542969 35.753906 20.910156 L 35.21875 17.074219 Z M 25.441406 17.847656 " fill-opacity="1" fill-rule="nonzero"/></g></g><g clip-path="url(#39994ac77b)"><g clip-path="url(#6169db15ec)"><path fill="#cb1313" d="M 40.191406 17.761719 C 31.640625 17.382812 23.1875 18.128906 14.835938 19.996094 C 14.421875 18.527344 14.007812 17.0625 13.59375 15.59375 C 22.5 13.601562 31.515625 12.808594 40.636719 13.210938 C 40.488281 14.726562 40.339844 16.242188 40.191406 17.761719 Z M 40.191406 17.761719 " fill-opacity="1" fill-rule="nonzero"/></g></g><g clip-path="url(#8806896475)"><g clip-path="url(#df19f76656)"><path fill="#7982a1" d="M 19.585938 14.128906 L 28.148438 12.832031 C 28.410156 12.789062 28.648438 12.847656 28.863281 13.003906 C 29.078125 13.164062 29.207031 13.371094 29.246094 13.632812 L 29.804688 17.277344 C 29.84375 17.539062 29.785156 17.777344 29.628906 17.992188 C 29.46875 18.207031 29.257812 18.332031 28.996094 18.371094 L 20.433594 19.671875 C 20.171875 19.710938 19.929688 19.652344 19.71875 19.496094 C 19.503906 19.339844 19.375 19.128906 19.335938 18.867188 L 18.777344 15.222656 C 18.734375 14.960938 18.796875 14.722656 18.953125 14.507812 C 19.109375 14.296875 19.320312 14.167969 19.585938 14.128906 Z M 19.585938 14.128906 " fill-opacity="1" fill-rule="nonzero"/></g></g><g clip-path="url(#bb53a1eb3f)"><g clip-path="url(#ba553b0791)"><path fill="#45506d" d="M 20.171875 14.984375 C 20.171875 15.082031 20.136719 15.167969 20.066406 15.234375 C 19.996094 15.304688 19.914062 15.339844 19.8125 15.339844 C 19.714844 15.339844 19.628906 15.304688 19.558594 15.234375 C 19.488281 15.167969 19.453125 15.082031 19.453125 14.984375 C 19.453125 14.886719 19.488281 14.800781 19.558594 14.730469 C 19.628906 14.660156 19.714844 14.625 19.8125 14.625 C 19.914062 14.625 19.996094 14.660156 20.066406 14.730469 C 20.136719 14.800781 20.171875 14.886719 20.171875 14.984375 Z M 20.171875 14.984375 " fill-opacity="1" fill-rule="nonzero"/></g></g><g clip-path="url(#8880c9b661)"><g clip-path="url(#1d3868d92f)"><path fill="#45506d" d="M 20.753906 18.789062 C 20.753906 18.886719 20.71875 18.96875 20.648438 19.039062 C 20.578125 19.109375 20.496094 19.144531 20.394531 19.144531 C 20.296875 19.144531 20.210938 19.109375 20.140625 19.039062 C 20.070312 18.96875 20.035156 18.886719 20.035156 18.789062 C 20.035156 18.6875 20.070312 18.605469 20.140625 18.535156 C 20.210938 18.464844 20.296875 18.429688 20.394531 18.429688 C 20.496094 18.429688 20.578125 18.464844 20.648438 18.535156 C 20.71875 18.605469 20.753906 18.6875 20.753906 18.789062 Z M 20.753906 18.789062 " fill-opacity="1" fill-rule="nonzero"/></g></g><g clip-path="url(#40dc378fa4)"><g clip-path="url(#221a64dec4)"><path fill="#45506d" d="M 28.542969 13.714844 C 28.542969 13.8125 28.507812 13.898438 28.4375 13.964844 C 28.367188 14.035156 28.285156 14.070312 28.183594 14.070312 C 28.085938 14.070312 28 14.035156 27.929688 13.964844 C 27.859375 13.898438 27.824219 13.8125 27.824219 13.714844 C 27.824219 13.617188 27.859375 13.53125 27.929688 13.460938 C 28 13.390625 28.085938 13.355469 28.183594 13.355469 C 28.285156 13.355469 28.367188 13.390625 28.4375 13.460938 C 28.507812 13.53125 28.542969 13.617188 28.542969 13.714844 Z M 28.542969 13.714844 " fill-opacity="1" fill-rule="nonzero"/></g></g><g clip-path="url(#3893389347)"><g clip-path="url(#ee9520a903)"><path fill="#45506d" d="M 29.125 17.515625 C 29.125 17.617188 29.089844 17.699219 29.023438 17.769531 C 28.953125 17.839844 28.867188 17.875 28.769531 17.875 C 28.667969 17.875 28.582031 17.839844 28.515625 17.769531 C 28.445312 17.699219 28.410156 17.617188 28.410156 17.515625 C 28.410156 17.417969 28.445312 17.335938 28.515625 17.265625 C 28.582031 17.195312 28.667969 17.160156 28.769531 17.160156 C 28.867188 17.160156 28.953125 17.195312 29.023438 17.265625 C 29.089844 17.335938 29.125 17.417969 29.125 17.515625 Z M 29.125 17.515625 " fill-opacity="1" fill-rule="nonzero"/></g></g><path fill="#000000" d="M 21.058594 20.433594 C 21.234375 20.40625 21.40625 20.417969 21.578125 20.460938 C 21.75 20.507812 21.90625 20.582031 22.050781 20.6875 C 22.191406 20.796875 22.304688 20.925781 22.394531 21.078125 C 22.484375 21.230469 22.542969 21.394531 22.566406 21.566406 L 22.730469 22.742188 C 22.753906 22.914062 22.742188 23.089844 22.699219 23.257812 C 22.652344 23.429688 22.578125 23.585938 22.472656 23.726562 C 22.363281 23.867188 22.234375 23.980469 22.082031 24.070312 C 21.925781 24.160156 21.761719 24.21875 21.585938 24.242188 C 21.410156 24.265625 21.238281 24.253906 21.066406 24.210938 C 20.894531 24.164062 20.738281 24.089844 20.597656 23.984375 C 20.457031 23.878906 20.339844 23.746094 20.25 23.59375 C 20.160156 23.441406 20.101562 23.28125 20.078125 23.105469 L 19.917969 21.933594 C 19.890625 21.757812 19.902344 21.585938 19.945312 21.414062 C 19.992188 21.242188 20.066406 21.085938 20.175781 20.945312 C 20.28125 20.804688 20.414062 20.691406 20.566406 20.601562 C 20.71875 20.511719 20.882812 20.457031 21.058594 20.433594 Z M 21.058594 20.433594 " fill-opacity="1" fill-rule="nonzero"/><path fill="#000000" d="M 30.359375 19.152344 C 30.535156 19.128906 30.710938 19.140625 30.878906 19.183594 C 31.050781 19.226562 31.210938 19.304688 31.351562 19.410156 C 31.492188 19.515625 31.609375 19.648438 31.695312 19.800781 C 31.785156 19.949219 31.84375 20.113281 31.867188 20.289062 L 32.03125 21.460938 C 32.054688 21.636719 32.042969 21.808594 32 21.980469 C 31.957031 22.152344 31.878906 22.304688 31.773438 22.449219 C 31.664062 22.589844 31.535156 22.703125 31.382812 22.792969 C 31.230469 22.882812 31.066406 22.9375 30.890625 22.960938 C 30.714844 22.988281 30.539062 22.976562 30.367188 22.933594 C 30.195312 22.886719 30.039062 22.8125 29.898438 22.703125 C 29.757812 22.597656 29.640625 22.46875 29.550781 22.316406 C 29.460938 22.164062 29.40625 22 29.378906 21.824219 L 29.21875 20.652344 C 29.191406 20.480469 29.203125 20.304688 29.25 20.136719 C 29.292969 19.964844 29.367188 19.808594 29.476562 19.667969 C 29.582031 19.527344 29.714844 19.414062 29.867188 19.324219 C 30.019531 19.234375 30.183594 19.175781 30.359375 19.152344 Z M 30.359375 19.152344 " fill-opacity="1" fill-rule="nonzero"/><path fill="#761715" d="M 39.519531 31.929688 C 39.472656 32.746094 38.859375 33.285156 37.15625 33.773438 C 35.777344 34.167969 33.796875 33.03125 33.546875 30.921875 C 33.339844 29.175781 34.484375 27.085938 37.621094 27.988281 C 39.605469 28.5625 39.617188 30.167969 39.519531 31.929688 Z M 39.519531 31.929688 " fill-opacity="1" fill-rule="nonzero"/><path fill="#090d14" d="M 34.886719 30.117188 L 34.765625 30.59375 C 34.695312 30.867188 34.679688 31.140625 34.714844 31.414062 C 34.753906 31.691406 34.839844 31.953125 34.976562 32.195312 C 35.117188 32.4375 35.292969 32.644531 35.511719 32.820312 C 35.730469 32.996094 35.972656 33.121094 36.242188 33.203125 C 38.011719 33.730469 40.699219 34.941406 43.390625 37.714844 L 47.804688 33.757812 C 47.804688 33.757812 42.945312 30.289062 37.660156 28.585938 C 37.375 28.496094 37.082031 28.464844 36.785156 28.492188 C 36.484375 28.523438 36.203125 28.609375 35.941406 28.753906 C 35.679688 28.898438 35.457031 29.089844 35.273438 29.328125 C 35.089844 29.566406 34.960938 29.828125 34.886719 30.117188 Z M 34.886719 30.117188 " fill-opacity="1" fill-rule="nonzero"/><g clip-path="url(#296160de04)"><g clip-path="url(#c49a7a4763)"><path fill="#761715" d="M 40.386719 36.320312 C 40.386719 36.320312 39.144531 31.070312 44.570312 31.097656 C 49.996094 31.121094 56.140625 36.765625 56.140625 36.765625 C 56.140625 36.765625 52.5 40.066406 51.855469 40.265625 C 51.210938 40.460938 44.871094 41.472656 44.769531 41.472656 C 44.671875 41.472656 41.152344 41.523438 41.25 41.375 C 41.351562 41.226562 40.386719 36.320312 40.386719 36.320312 Z M 40.386719 36.320312 " fill-opacity="1" fill-rule="nonzero"/></g></g><path fill="#fcd2ba" d="M 43.234375 40.183594 C 43.09375 40 43.023438 39.792969 43.023438 39.566406 C 43.015625 38.726562 43.160156 36.359375 44.945312 34.992188 C 47.136719 33.304688 49.550781 32.914062 51.136719 33.851562 C 52.722656 34.789062 49.949219 35.183594 49.949219 35.183594 C 49.949219 35.183594 51.324219 35.578125 51.625 36.351562 C 51.929688 37.128906 49.75 37.695312 48.609375 36.761719 C 48.609375 36.761719 49.921875 37.671875 49.824219 38.410156 C 49.726562 39.152344 48.296875 39.199219 47.488281 38.238281 C 47.488281 38.238281 48.363281 39.546875 47.71875 40.160156 C 47.074219 40.777344 45.785156 39.398438 45.511719 38.511719 C 45.511719 38.511719 44.238281 41.460938 43.234375 40.183594 Z M 43.234375 40.183594 " fill-opacity="1" fill-rule="nonzero"/><path fill="#1a2233" d="M 33.347656 39.820312 C 33.347656 39.820312 35.136719 40.558594 36.273438 41.644531 L 35.453125 43.59375 L 32.953125 40.929688 Z M 33.347656 39.820312 " fill-opacity="1" fill-rule="nonzero"/><path fill="#090d14" d="M 33.828125 38.972656 L 35.539062 42.832031 C 35.71875 43.230469 35.808594 43.644531 35.820312 44.082031 C 35.828125 44.515625 35.753906 44.9375 35.589844 45.34375 C 35.429688 45.75 35.199219 46.109375 34.894531 46.421875 C 34.585938 46.734375 34.234375 46.976562 33.832031 47.144531 C 33.226562 47.402344 32.601562 47.472656 31.957031 47.355469 C 31.3125 47.238281 30.75 46.957031 30.277344 46.503906 L 25.429688 41.890625 Z M 33.828125 38.972656 " fill-opacity="1" fill-rule="nonzero"/><path fill="#090d14" d="M 24.066406 37.195312 C 24.066406 37.195312 19.746094 39.339844 22.496094 46.734375 C 25.246094 54.128906 32.753906 48.03125 31.714844 45.515625 C 30.671875 43 30.34375 40.894531 30.34375 40.894531 L 33.828125 38.972656 C 33.828125 38.972656 31.304688 33.355469 24.066406 37.195312 Z M 24.066406 37.195312 " fill-opacity="1" fill-rule="nonzero"/><path fill="#090d14" d="M 25.878906 38.011719 L 18.773438 27.894531 C 18.613281 27.667969 18.429688 27.457031 18.226562 27.265625 C 18.023438 27.074219 17.800781 26.90625 17.5625 26.757812 C 17.324219 26.609375 17.074219 26.488281 16.8125 26.394531 C 16.546875 26.296875 16.277344 26.226562 16 26.1875 C 15.722656 26.144531 15.445312 26.132812 15.164062 26.148438 C 14.886719 26.160156 14.609375 26.203125 14.339844 26.273438 C 14.066406 26.347656 13.804688 26.441406 13.554688 26.566406 C 13.304688 26.691406 13.066406 26.839844 12.847656 27.007812 L 11.90625 27.738281 C 11.679688 27.914062 11.476562 28.109375 11.289062 28.328125 C 11.105469 28.546875 10.945312 28.78125 10.808594 29.03125 C 10.671875 29.285156 10.5625 29.546875 10.484375 29.820312 C 10.402344 30.09375 10.351562 30.375 10.328125 30.660156 C 10.304688 30.945312 10.3125 31.226562 10.351562 31.511719 C 10.386719 31.792969 10.453125 32.070312 10.546875 32.339844 C 10.644531 32.609375 10.765625 32.867188 10.914062 33.109375 C 11.0625 33.355469 11.234375 33.582031 11.429688 33.789062 L 20.15625 43.0625 C 20.15625 43.0625 22.796875 49.324219 27.105469 46.21875 C 31.417969 43.113281 25.878906 38.011719 25.878906 38.011719 Z M 25.878906 38.011719 " fill-opacity="1" fill-rule="nonzero"/><path fill="#7982a1" d="M 9.558594 27.210938 L 11.976562 31.238281 C 12.082031 31.414062 12.207031 31.578125 12.347656 31.726562 C 12.488281 31.875 12.644531 32.007812 12.816406 32.121094 C 12.988281 32.234375 13.171875 32.328125 13.363281 32.402344 C 13.554688 32.472656 13.753906 32.527344 13.957031 32.554688 C 14.160156 32.585938 14.367188 32.589844 14.570312 32.574219 C 14.777344 32.558594 14.980469 32.523438 15.175781 32.460938 C 15.371094 32.402344 15.558594 32.320312 15.738281 32.21875 C 15.917969 32.117188 16.082031 31.996094 16.234375 31.855469 C 16.511719 31.601562 16.730469 31.304688 16.882812 30.964844 C 17.039062 30.625 17.121094 30.265625 17.132812 29.890625 C 17.140625 29.515625 17.078125 29.15625 16.9375 28.808594 C 16.800781 28.457031 16.597656 28.152344 16.332031 27.882812 L 12.269531 23.785156 Z M 9.558594 27.210938 " fill-opacity="1" fill-rule="nonzero"/><path fill="#090d14" d="M 11.3125 17.5625 C 11.3125 17.5625 7.273438 19.621094 7.015625 25.46875 C 6.996094 25.90625 7.15625 26.265625 7.503906 26.539062 L 10.316406 28.765625 C 10.316406 28.765625 12.644531 29.105469 14.078125 25.609375 C 14.078125 25.609375 13.875 21.058594 12.835938 18.523438 C 12.203125 16.980469 11.3125 17.5625 11.3125 17.5625 Z M 11.3125 17.5625 " fill-opacity="1" fill-rule="nonzero"/></svg>